<svg width="24" height="24" viewBox="0 0 24 24" fill="none" xmlns="http://www.w3.org/2000/svg">
<path d="M21.0438 10.576C21.0438 10.576 23.0168 10.676 23.0168 9.516C23.0168 7.998 20.3898 6.631 20.3898 6.631C20.3898 6.631 20.8018 5.758 21.0578 5.2695C21.3153 4.7815 22.0378 2.877 22.1028 2.4435C22.1848 1.8965 22.0598 1.7245 22.0598 1.7245C21.8818 2.8965 19.9738 6.2695 19.8233 6.3845C17.9618 5.5115 15.4053 5.2695 15.4053 5.2695C15.4053 5.2695 12.9033 0 10.5498 0C8.21583 0 8.22733 4.5115 8.22733 4.5115C8.22733 4.5115 7.56733 3.2325 6.74133 3.2325C5.53033 3.2325 5.13383 5.0645 5.13383 7.049C2.74333 7.049 0.733834 7.582 0.553834 7.633C0.373834 7.6855 -0.190166 8.0955 0.0653338 8.045C0.588834 7.877 3.04383 7.496 5.19233 7.6835C5.31133 9.5705 6.41333 12.0275 6.41333 12.0275C6.41333 12.0275 4.05183 15.4475 4.05183 17.8905C4.05183 18.533 4.33133 19.709 6.02683 19.709C7.44633 19.709 9.03983 18.8555 9.34083 18.6815C9.07933 19.0565 8.88583 19.7675 8.88583 20.0955C8.88583 20.3635 9.04383 21.123 10.1398 21.123C11.5458 21.123 13.1163 20.045 13.1163 20.045C13.1163 20.045 14.5988 22.51 15.8683 23.6405C16.2098 23.9455 16.5363 24 16.5363 24C16.5363 24 15.2763 22.787 13.6163 19.662C15.1593 18.709 16.7648 16.461 16.7648 16.461C16.7648 16.461 16.9543 16.467 18.4188 16.467C20.7138 16.467 23.9738 15.9845 23.9738 14.16C23.9738 12.2775 21.0438 10.576 21.0438 10.576V10.576ZM21.2998 9.4435C21.2998 10.1095 20.6668 10.0995 20.6668 10.0995L20.1848 10.133C20.1848 10.133 19.2703 9.6525 18.7178 9.428C18.7178 9.428 19.5753 8.1035 19.7763 7.7345C19.9288 7.8225 21.2998 8.6815 21.2998 9.4435ZM11.6983 2.6545C12.7763 2.6545 14.3153 5.201 14.3153 5.201C14.3153 5.201 11.9133 4.986 9.93633 6.1485C9.98933 4.3145 10.6063 2.6545 11.6983 2.6545ZM7.42333 4.7185C7.76683 4.7185 8.10233 5.135 8.24133 5.4885C8.24133 5.7225 8.36233 7.086 8.36233 7.086L6.38233 7.0115C6.38233 5.2245 7.08133 4.719 7.42283 4.719L7.42333 4.7185ZM7.21983 17.1235C6.13783 17.1235 5.91333 16.5195 5.91333 15.9765C5.91333 14.748 6.89333 13.0295 6.89333 13.0295C6.89333 13.0295 7.99333 15.342 9.91333 16.3185C8.95983 16.877 8.17483 17.1235 7.21983 17.1235V17.1235ZM10.7333 19.545C9.97333 19.545 9.88183 19.0525 9.88183 18.9395C9.88183 18.586 10.1568 18.168 10.1568 18.168C10.1568 18.168 11.4328 17.3065 11.5148 17.215L12.4563 18.9725C12.4563 18.9725 11.4913 19.545 10.7333 19.545V19.545ZM13.1008 18.586C12.6378 17.7775 12.2978 16.9335 12.2978 16.9335C12.2978 16.9335 14.1943 17.0565 15.2138 16.0035C14.5788 16.289 13.5653 16.6505 12.3878 16.541C14.8508 14.371 16.2878 12.799 17.5028 11.172C17.3993 11.047 16.8428 10.658 16.7063 10.5935C15.9738 11.4765 13.1203 14.5275 10.4793 16.037C7.13383 14.213 6.43283 8.8455 6.36033 7.7305L8.18833 7.9065C8.18833 7.9065 7.50083 9.123 7.50083 10.0195C7.50083 10.9145 7.60833 10.963 7.60833 10.963C7.60833 10.963 7.58483 9.4005 8.54983 8.1955C9.28433 12.1055 10.0498 14.1095 10.6473 15.3025C10.9503 15.1775 11.5168 14.926 11.5168 14.926C11.5168 14.926 9.82933 10.061 9.92283 6.7675C10.6883 6.3595 11.8213 5.9375 13.1008 5.9375C16.4658 5.9375 19.1708 7.3865 19.1708 7.3865L18.1123 8.865C18.1123 8.865 17.1688 7.156 15.8373 6.8515C16.5398 7.3765 17.3273 8.0685 17.7353 9.0645C14.9463 7.9745 11.5808 7.3985 10.5008 7.2715C10.4073 7.67 10.4188 8.24 10.4188 8.24C10.4188 8.24 14.9328 9.0725 18.2178 10.953C18.1943 15.0625 13.7178 18.219 13.1008 18.586V18.586ZM17.3758 15.5135C17.3758 15.5135 18.7763 13.6735 18.7548 11.2385C18.7548 11.2385 21.0188 12.6405 21.0188 14.008C21.0188 15.537 17.3758 15.5135 17.3758 15.5135Z" fill="white"/>
</svg>
