<svg width="24" height="24" viewBox="0 0 24 24" fill="none" xmlns="http://www.w3.org/2000/svg">
<g clip-path="url(#clip0)">
<mask id="mask0" mask-type="alpha" maskUnits="userSpaceOnUse" x="0" y="0" width="24" height="24">
<path fill-rule="evenodd" clip-rule="evenodd" d="M17.0188 23.8361C17.3968 23.9834 17.8279 23.9739 18.2094 23.7904L23.1506 21.4128C23.6698 21.1629 24 20.6374 24 20.0609V3.9392C24 3.36271 23.6698 2.83723 23.1506 2.58739L18.2094 0.209701C17.7087 -0.031231 17.1227 0.0277824 16.6833 0.347267C16.6205 0.392906 16.5607 0.443863 16.5046 0.500019L7.04522 9.12996L2.92492 6.00231C2.54137 5.71116 2.00487 5.73501 1.64864 6.05906L0.327127 7.26117C-0.108612 7.65755 -0.109112 8.34306 0.326048 8.74007L3.89931 12L0.326048 15.26C-0.109112 15.657 -0.108612 16.3425 0.327127 16.7389L1.64864 17.9409C2.00487 18.265 2.54137 18.2888 2.92492 17.9977L7.04522 14.8701L16.5046 23.5C16.6542 23.6497 16.8299 23.7625 17.0188 23.8361ZM18.0037 6.55175L10.8262 12L18.0037 17.4483V6.55175Z" fill="white"/>
</mask>
<g mask="url(#mask0)">
<path d="M23.1506 2.59109L18.2056 0.21013C17.6332 -0.0654647 16.9492 0.0507874 16.4999 0.5L0.311598 15.26C-0.123827 15.657 -0.123326 16.3425 0.312678 16.7389L1.63499 17.9409C1.99145 18.265 2.52827 18.2888 2.91205 17.9977L22.4065 3.20877C23.0605 2.71263 23.9999 3.17909 23.9999 4V3.94259C23.9999 3.36636 23.6698 2.84107 23.1506 2.59109Z" fill="#0065A9"/>
<g filter="url(#filter0_d)">
<path d="M23.1506 21.4089L18.2056 23.7899C17.6332 24.0654 16.9492 23.9492 16.4999 23.5L0.311598 8.74005C-0.123827 8.34305 -0.123326 7.65752 0.312678 7.26116L1.63499 6.05905C1.99145 5.735 2.52827 5.71114 2.91205 6.0023L22.4065 20.7912C23.0605 21.2874 23.9999 20.8209 23.9999 20V20.0574C23.9999 20.6336 23.6698 21.1589 23.1506 21.4089Z" fill="#007ACC"/>
</g>
<g filter="url(#filter1_d)">
<path d="M18.2059 23.7903C17.6333 24.0656 16.9492 23.9493 16.5 23.5C17.0535 24.0535 18 23.6615 18 22.8787V1.12131C18 0.338492 17.0535 -0.0535467 16.5 0.499989C16.9492 0.0507352 17.6333 -0.065681 18.2059 0.209671L23.1501 2.58736C23.6696 2.8372 24 3.36268 24 3.93917V20.0609C24 20.6374 23.6696 21.1628 23.1501 21.4127L18.2059 23.7903Z" fill="#1F9CF0"/>
</g>
<g style="mix-blend-mode:overlay" opacity="0.25">
<path style="mix-blend-mode:overlay" opacity="0.25" fill-rule="evenodd" clip-rule="evenodd" d="M17.0042 23.8363C17.3822 23.9835 17.8132 23.9741 18.1947 23.7905L23.1359 21.4128C23.6552 21.163 23.9854 20.6375 23.9854 20.0611V3.93933C23.9854 3.36284 23.6552 2.83737 23.136 2.58752L18.1947 0.209839C17.6941 -0.0310938 17.1081 0.0279196 16.6686 0.347404C16.6058 0.393043 16.546 0.444 16.4899 0.500156L7.03057 9.13009L2.91027 6.00245C2.52672 5.7113 1.99022 5.73516 1.63399 6.0592L0.312479 7.26131C-0.123261 7.65768 -0.12376 8.3432 0.3114 8.74021L3.88466 12.0002L0.3114 15.2601C-0.12376 15.6572 -0.123261 16.3427 0.312479 16.739L1.63399 17.9411C1.99022 18.2652 2.52672 18.289 2.91027 17.9979L7.03057 14.8702L16.4899 23.5002C16.6395 23.6499 16.8153 23.7627 17.0042 23.8363ZM17.989 6.55188L10.8115 12.0002L17.989 17.4484V6.55188Z" fill="url(#paint0_linear)"/>
</g>
</g>
</g>
<defs>
<filter id="filter0_d" x="-21.348" y="-15.5344" width="66.6814" height="60.8057" filterUnits="userSpaceOnUse" color-interpolation-filters="sRGB">
<feFlood flood-opacity="0" result="BackgroundImageFix"/>
<feColorMatrix in="SourceAlpha" type="matrix" values="0 0 0 0 0 0 0 0 0 0 0 0 0 0 0 0 0 0 127 0"/>
<feOffset/>
<feGaussianBlur stdDeviation="10.6667"/>
<feColorMatrix type="matrix" values="0 0 0 0 0 0 0 0 0 0 0 0 0 0 0 0 0 0 0.25 0"/>
<feBlend mode="overlay" in2="BackgroundImageFix" result="effect1_dropShadow"/>
<feBlend mode="normal" in="SourceGraphic" in2="effect1_dropShadow" result="shape"/>
</filter>
<filter id="filter1_d" x="-4.8334" y="-21.2715" width="50.1668" height="66.5431" filterUnits="userSpaceOnUse" color-interpolation-filters="sRGB">
<feFlood flood-opacity="0" result="BackgroundImageFix"/>
<feColorMatrix in="SourceAlpha" type="matrix" values="0 0 0 0 0 0 0 0 0 0 0 0 0 0 0 0 0 0 127 0"/>
<feOffset/>
<feGaussianBlur stdDeviation="10.6667"/>
<feColorMatrix type="matrix" values="0 0 0 0 0 0 0 0 0 0 0 0 0 0 0 0 0 0 0.25 0"/>
<feBlend mode="overlay" in2="BackgroundImageFix" result="effect1_dropShadow"/>
<feBlend mode="normal" in="SourceGraphic" in2="effect1_dropShadow" result="shape"/>
</filter>
<linearGradient id="paint0_linear" x1="11.9854" y1="0.0620269" x2="11.9854" y2="23.9383" gradientUnits="userSpaceOnUse">
<stop stop-color="white"/>
<stop offset="1" stop-color="white" stop-opacity="0"/>
</linearGradient>
<clipPath id="clip0">
<rect width="24" height="24" fill="white"/>
</clipPath>
</defs>
</svg>
