<svg width="24" height="24" viewBox="0 0 24 24" fill="none" xmlns="http://www.w3.org/2000/svg">
<path d="M10.1915 0C12.7214 0 14.9322 0.501425 16.8239 1.50427C18.7157 2.50712 20.1744 3.92023 21.2 5.74359C22.2484 7.54416 22.7727 9.62963 22.7727 12C22.7727 14.3476 22.2484 16.433 21.2 18.2564C20.1744 20.0798 18.7043 21.4929 16.7898 22.4957C14.898 23.4986 12.6986 24 10.1915 24H1.20001V0H10.1915ZM9.8154 18.9402C12.0262 18.9402 13.747 18.3362 14.9778 17.1282C16.2086 15.9202 16.8239 14.2108 16.8239 12C16.8239 9.78917 16.2086 8.06838 14.9778 6.83761C13.747 5.60684 12.0262 4.99145 9.8154 4.99145H7.04617V18.9402H9.8154Z" fill="#0B474B"/>
</svg>
