<svg width="24" height="24" viewBox="0 0 24 24" fill="none" xmlns="http://www.w3.org/2000/svg">
<g clip-path="url(#clip0)">
<path fill-rule="evenodd" clip-rule="evenodd" d="M11.9948 24.0942V19.4431C16.9179 19.4431 20.7395 14.561 18.849 9.37932C18.5018 8.42741 17.9506 7.56291 17.2342 6.84639C16.5177 6.12986 15.6533 5.57864 14.7014 5.23132C9.5198 3.35471 4.63762 7.16234 4.63762 12.0854H0C0 4.23909 7.58878 -1.88085 15.8164 0.689027C19.4069 1.81846 22.2763 4.67383 23.3917 8.26481C25.9621 16.5055 19.8556 24.0942 11.9948 24.0942Z" fill="#0080FF"/>
<path fill-rule="evenodd" clip-rule="evenodd" d="M7.38466 19.4566H12.0083V14.833H7.38514L7.38466 19.4566ZM3.8216 23.0197H7.38418V19.4571H3.8216V23.0197ZM0.842987 19.4571H3.8216V16.478H0.842987V19.4571Z" fill="#0080FF"/>
</g>
<defs>
<clipPath id="clip0">
<rect width="24" height="24" fill="white"/>
</clipPath>
</defs>
</svg>
