<svg width="24" height="24" viewBox="0 0 24 24" fill="none" xmlns="http://www.w3.org/2000/svg">
<path d="M14.6796 8.66857L12.2773 10.9039L10.0482 6.40768L11.2016 3.82203C11.4936 3.30368 11.97 3.30269 12.2619 3.82203L14.6796 8.66857Z" fill="#FFA000"/>
<path d="M12.2773 10.9038L3.30026 19.2549L10.0482 6.40762L12.2773 10.9038Z" fill="#F57F17"/>
<path d="M17.307 5.25191C17.7362 4.83942 18.1799 4.98011 18.2929 5.56457L20.6296 19.1431L12.8837 23.7854C12.6126 23.935 11.8948 24 11.8948 24C11.8948 24 11.2396 23.9216 10.9899 23.783L3.3 19.2545L17.307 5.25191Z" fill="#FFCA28"/>
<path d="M10.0481 6.40762L3.30019 19.2549L6.3058 0.478233C6.41648 -0.106693 6.74944 -0.163023 7.0465 0.353274L10.0481 6.40762Z" fill="#FFA000"/>
</svg>
