<svg width="24" height="24" viewBox="0 0 24 24" fill="none" xmlns="http://www.w3.org/2000/svg">
<g clip-path="url(#clip0)">
<path d="M23.5 13H22C21.8674 13 21.7402 12.9473 21.6464 12.8536C21.5527 12.7598 21.5 12.6326 21.5 12.5V3.5C21.5 2.671 20.828 0 20 0C19.172 0 18.5 2.671 18.5 3.5V12.5C18.5 12.6326 18.4473 12.7598 18.3536 12.8536C18.2598 12.9473 18.1326 13 18 13H16.5C16.3674 13 16.2402 13.0527 16.1464 13.1464C16.0527 13.2402 16 13.3674 16 13.5C16 13.6326 16.0527 13.7598 16.1464 13.8536C16.2402 13.9473 16.3674 14 16.5 14H23.5C23.6326 14 23.7598 13.9473 23.8536 13.8536C23.9473 13.7598 24 13.6326 24 13.5C24 13.3674 23.9473 13.2402 23.8536 13.1464C23.7598 13.0527 23.6326 13 23.5 13Z" fill="white"/>
<path d="M20.5 15.5H19.5C19.3674 15.5 19.2402 15.5527 19.1464 15.6464C19.0527 15.7402 19 15.8674 19 16V19.5C19 19.7652 19.1054 20.0196 19.2929 20.2071C19.4804 20.3946 19.7348 20.5 20 20.5C20.2652 20.5 20.5196 20.3946 20.7071 20.2071C20.8946 20.0196 21 19.7652 21 19.5V16C21 15.8674 20.9473 15.7402 20.8536 15.6464C20.7598 15.5527 20.6326 15.5 20.5 15.5Z" fill="white"/>
<path d="M13.008 13.9C12.9514 13.861 12.9034 13.8107 12.8671 13.7523C12.8308 13.6939 12.8069 13.6287 12.797 13.5606C12.787 13.4926 12.7912 13.4232 12.8093 13.3569C12.8273 13.2905 12.8589 13.2286 12.902 13.175C13.368 12.5962 13.6985 11.9203 13.869 11.197C13.9086 11.026 13.9843 10.8654 14.091 10.726L16.44 7.63C16.5798 7.43537 16.6607 7.20467 16.6731 6.96536C16.6854 6.72605 16.6288 6.48824 16.5098 6.28023C16.3908 6.07222 16.2146 5.90279 16.002 5.79212C15.7895 5.68145 15.5496 5.6342 15.311 5.656H13.937C13.8126 5.65662 13.6925 5.61086 13.6 5.52765C13.5076 5.44444 13.4494 5.32976 13.437 5.206C13.412 4.14764 13.0845 3.11858 12.4931 2.24049C11.9018 1.3624 11.0713 0.672026 10.1 0.251C9.24368 -0.0744648 8.29927 -0.0833308 7.437 0.226C5.95181 0.713304 4.53371 1.38523 3.216 2.226C2.725 2.519 2.254 2.801 1.773 3.046C1.66795 3.09427 1.58287 3.17745 1.53224 3.28139C1.48162 3.38533 1.46858 3.5036 1.49534 3.61607C1.5221 3.72855 1.58701 3.82827 1.67903 3.89827C1.77104 3.96827 1.88446 4.00422 2 4H4.214C4.28823 3.99984 4.36158 4.01621 4.4287 4.04792C4.49582 4.07963 4.55504 4.12589 4.60205 4.18334C4.64906 4.2408 4.6827 4.308 4.7005 4.38006C4.71831 4.45213 4.71985 4.52726 4.705 4.6C4.666 4.8 4.628 5.011 4.596 5.234C4.5788 5.35396 4.51861 5.46358 4.42664 5.54249C4.33467 5.6214 4.21718 5.66423 4.096 5.663H2.686C2.44463 5.64089 2.20204 5.68948 1.98781 5.80286C1.77358 5.91624 1.59697 6.0895 1.47951 6.30152C1.36205 6.51354 1.30882 6.75516 1.32631 6.99691C1.3438 7.23866 1.43125 7.47009 1.578 7.663L2.717 9.163C2.81067 9.28628 2.93168 9.38612 3.0705 9.45466C3.20933 9.52321 3.36217 9.55858 3.517 9.558H4.52C4.61285 9.558 4.70388 9.53214 4.78286 9.48333C4.86185 9.43451 4.92569 9.36466 4.96721 9.28161C5.00874 9.19855 5.02632 9.10558 5.01798 9.0131C5.00964 8.92062 4.97571 8.83229 4.92 8.758L4.4 8.057C4.37214 8.01986 4.35518 7.97569 4.35101 7.92945C4.34684 7.88321 4.35563 7.83672 4.37639 7.7952C4.39715 7.75367 4.42907 7.71875 4.46857 7.69434C4.50806 7.66993 4.55357 7.657 4.6 7.657H13.411C13.4573 7.65737 13.5025 7.67052 13.5418 7.695C13.5811 7.71949 13.6128 7.75435 13.6335 7.79574C13.6542 7.83713 13.6631 7.88344 13.6591 7.92954C13.6551 7.97565 13.6385 8.01976 13.611 8.057L12.174 9.941C12.0658 10.0807 11.9967 10.2467 11.974 10.422C11.9214 10.839 11.7816 11.2403 11.5637 11.5997C11.3457 11.9591 11.0545 12.2686 10.709 12.508C10.6428 12.5542 10.5888 12.6156 10.5515 12.6872C10.5142 12.7588 10.4949 12.8383 10.495 12.919V17.548C10.495 19.625 9.03 22.048 7.375 23.566C7.33764 23.6003 7.31161 23.6452 7.30039 23.6947C7.28916 23.7442 7.29326 23.796 7.31215 23.8431C7.33103 23.8902 7.36381 23.9304 7.40612 23.9585C7.44842 23.9865 7.49826 24.001 7.549 24H15C15.2652 24 15.5196 23.8946 15.7071 23.7071C15.8946 23.5196 16 23.2652 16 23V20.332C16.0644 19.0971 15.8254 17.8652 15.3038 16.7439C14.7822 15.6227 13.994 14.6463 13.008 13.9V13.9Z" fill="white"/>
<path d="M9 12.048C9 11.7828 8.89464 11.5284 8.70711 11.3409C8.51957 11.1534 8.26522 11.048 8 11.048H1C0.734784 11.048 0.48043 11.1534 0.292893 11.3409C0.105357 11.5284 0 11.7828 0 12.048L0 17.548C0 20.28 3.229 23.548 4.5 23.548C5.771 23.548 9 20.28 9 17.548V12.048ZM6.5 16.3H5.75C5.61739 16.3 5.49021 16.3527 5.39645 16.4464C5.30268 16.5402 5.25 16.6674 5.25 16.8V19.05C5.25 19.2489 5.17098 19.4397 5.03033 19.5803C4.88968 19.721 4.69891 19.8 4.5 19.8C4.30109 19.8 4.11032 19.721 3.96967 19.5803C3.82902 19.4397 3.75 19.2489 3.75 19.05V16.8C3.75 16.6674 3.69732 16.5402 3.60355 16.4464C3.50979 16.3527 3.38261 16.3 3.25 16.3H2.5C2.30109 16.3 2.11032 16.221 1.96967 16.0803C1.82902 15.9397 1.75 15.7489 1.75 15.55C1.75 15.3511 1.82902 15.1603 1.96967 15.0197C2.11032 14.879 2.30109 14.8 2.5 14.8H3.25C3.38261 14.8 3.50979 14.7473 3.60355 14.6536C3.69732 14.5598 3.75 14.4326 3.75 14.3V13.55C3.75 13.3511 3.82902 13.1603 3.96967 13.0197C4.11032 12.879 4.30109 12.8 4.5 12.8C4.69891 12.8 4.88968 12.879 5.03033 13.0197C5.17098 13.1603 5.25 13.3511 5.25 13.55V14.3C5.25 14.4326 5.30268 14.5598 5.39645 14.6536C5.49021 14.7473 5.61739 14.8 5.75 14.8H6.5C6.69891 14.8 6.88968 14.879 7.03033 15.0197C7.17098 15.1603 7.25 15.3511 7.25 15.55C7.25 15.7489 7.17098 15.9397 7.03033 16.0803C6.88968 16.221 6.69891 16.3 6.5 16.3Z" fill="white"/>
<path d="M6.75 9.298C6.75 9.49691 6.82902 9.68768 6.96967 9.82833C7.11032 9.96898 7.30109 10.048 7.5 10.048C7.69891 10.048 7.88968 9.96898 8.03033 9.82833C8.17098 9.68768 8.25 9.49691 8.25 9.298C8.25 9.09909 8.17098 8.90832 8.03033 8.76767C7.88968 8.62702 7.69891 8.548 7.5 8.548C7.30109 8.548 7.11032 8.62702 6.96967 8.76767C6.82902 8.90832 6.75 9.09909 6.75 9.298V9.298Z" fill="white"/>
<path d="M9.75 9.298C9.75 9.49691 9.82902 9.68768 9.96967 9.82833C10.1103 9.96898 10.3011 10.048 10.5 10.048C10.6989 10.048 10.8897 9.96898 11.0303 9.82833C11.171 9.68768 11.25 9.49691 11.25 9.298C11.25 9.09909 11.171 8.90832 11.0303 8.76767C10.8897 8.62702 10.6989 8.548 10.5 8.548C10.3011 8.548 10.1103 8.62702 9.96967 8.76767C9.82902 8.90832 9.75 9.09909 9.75 9.298V9.298Z" fill="white"/>
</g>
<defs>
<clipPath id="clip0">
<rect width="24" height="24" fill="white"/>
</clipPath>
</defs>
</svg>
