<svg width="24" height="24" viewBox="0 0 24 24" fill="none" xmlns="http://www.w3.org/2000/svg">
<path d="M12.7482 0.000668868C13.0689 0.0337778 13.39 0.0625391 13.71 0.10033C14.811 0.23009 15.8909 0.467538 16.8908 0.94812C17.8129 1.39124 18.6088 2.03102 19.2683 2.81493C20.276 4.01321 20.9281 5.39074 21.2298 6.92947C21.2682 7.12545 21.2853 7.32744 21.2923 7.5271C21.2966 7.64817 21.3485 7.69298 21.4555 7.71305C21.6796 7.75552 21.9033 7.80033 22.126 7.8505C22.9518 8.03711 23.2818 8.56385 23.1046 9.39826C23.0675 9.57283 23.0046 9.70293 22.83 9.79891C22.4708 9.99623 22.3321 10.3424 22.3143 10.7357C22.2983 11.0918 22.3448 11.4557 22.2876 11.8035C22.1301 12.7583 21.7789 13.6345 21.094 14.3469C21.0328 14.4108 20.9592 14.4626 20.908 14.5057C21.0906 14.8636 21.2702 15.1836 21.4197 15.5174C21.6 15.9204 21.698 16.3481 21.5869 16.7869C21.4475 17.3377 21.115 17.7481 20.6458 18.0775C20.19 18.3975 19.7409 18.4042 19.2643 18.1805C18.9419 18.0293 18.6289 17.8588 18.3085 17.7033C18.0948 17.5996 18.0811 17.5976 17.956 17.8066C17.8135 18.0447 17.7005 18.3006 17.5614 18.541C17.4507 18.733 17.3296 18.9209 17.1938 19.0955C17.1316 19.1758 17.1296 19.2296 17.1624 19.3172C17.4751 20.1607 17.5891 21.0225 17.3614 21.9064C17.2263 22.4305 16.8738 22.8244 16.531 23.2204C16.4959 23.2609 16.443 23.289 16.3942 23.3144C16.1982 23.416 16.1597 23.4023 16.0698 23.2067C15.7865 22.589 15.4073 22.0348 14.9628 21.5232C14.9374 21.4941 14.918 21.4596 14.8722 21.3934C14.7528 21.664 14.6535 21.8914 14.5521 22.1181C14.3638 22.5392 14.1923 22.9692 13.9779 23.3766C13.8592 23.6023 13.6675 23.7899 13.5047 24C13.2201 23.7766 13.0422 23.5214 12.9167 23.2341C12.7408 22.8318 12.5877 22.4191 12.4141 22.0158C12.3291 21.8181 12.2198 21.6305 12.1007 21.3974C12.0536 21.4904 12.0261 21.5405 12.0024 21.592C11.6713 22.3034 11.3409 23.0151 11.0095 23.7264C10.8563 24.0552 10.6229 24.0973 10.4289 23.7933C10.2028 23.4388 10.0185 23.0552 9.84129 22.6726C9.67809 22.3198 9.54866 21.9509 9.40352 21.5897C9.38312 21.5392 9.35737 21.4904 9.32861 21.4292C8.73064 21.982 8.34036 22.6592 7.9979 23.3739C7.71095 23.2796 7.50126 23.1034 7.3297 22.8789C7.03774 22.497 6.8839 22.0475 6.71601 21.6054C6.71033 21.59 6.70665 21.573 6.70665 21.5566C6.70932 20.7884 6.67588 20.0159 6.99794 19.2875C7.01767 19.243 7.01667 19.159 6.98791 19.1279C6.65013 18.7601 6.45616 18.3079 6.23409 17.8715C6.19396 17.7925 6.15216 17.7143 6.10032 17.615C5.97926 17.6591 5.85819 17.6942 5.74448 17.7464C5.42109 17.8949 5.10538 18.0618 4.77697 18.1982C4.59972 18.2718 4.40541 18.3176 4.21445 18.3407C3.94389 18.3735 3.69976 18.2788 3.48271 18.1143C2.9115 17.6812 2.6075 17.0856 2.53292 16.3939C2.50349 16.1224 2.60382 15.8197 2.70749 15.5559C2.83056 15.2422 3.01751 14.9532 3.18339 14.6572C3.22787 14.5776 3.23322 14.5288 3.16266 14.4572C2.35366 13.6345 1.97207 12.6192 1.84633 11.4932C1.81188 11.1835 1.7985 10.8711 1.78813 10.5594C1.78446 10.4554 1.75636 10.3875 1.67443 10.3206C1.26809 9.98786 1.01693 9.5725 1.00054 9.03172C0.992852 8.77621 1.0671 8.55448 1.20321 8.34011C1.43029 7.98227 1.75001 7.82374 2.16839 7.82408C2.32758 7.82408 2.49044 7.79565 2.64562 7.75652C2.81384 7.71405 2.90916 7.58529 2.91417 7.41272C2.95497 6.02148 3.48773 4.80414 4.25793 3.68011C5.09267 2.4621 6.17022 1.50696 7.50227 0.861836C8.21762 0.515362 8.99083 0.332762 9.7724 0.205008C10.2664 0.124409 10.767 0.085615 11.2643 0.0274236C11.3135 0.0217382 11.362 0.00936415 11.4108 0C11.8563 0.000668868 12.3021 0.000668868 12.7482 0.000668868ZM3.74691 7.61907C3.84557 7.61907 3.92249 7.61773 3.99907 7.6194C4.5947 7.63245 5.191 7.63445 5.78562 7.66422C6.10667 7.68027 6.42472 7.77793 6.74477 7.78094C7.42267 7.78762 8.08987 7.87123 8.74703 8.01838C9.60451 8.21035 10.454 8.43743 11.3081 8.64545C11.884 8.78557 12.4596 8.84076 13.0281 8.60699C13.0639 8.59227 13.1034 8.58759 13.1411 8.57722C15.0357 8.04982 16.9554 7.68328 18.9302 7.6495C19.4359 7.64081 19.9409 7.59064 20.4555 7.55887C20.4492 7.50737 20.4465 7.46991 20.4395 7.43313C20.2997 6.70941 20.1027 6.00309 19.785 5.33556C18.9807 3.64499 17.6694 2.48116 15.9905 1.70561C15.424 1.44375 14.8437 1.20229 14.223 1.114C13.2064 0.969189 12.1827 0.919358 11.1556 1.00364C10.2359 1.07888 9.32225 1.22135 8.4651 1.55779C6.38961 2.37314 4.93549 3.84131 4.09171 5.90443C3.87199 6.44287 3.75561 7.01007 3.74691 7.61907ZM10.6827 22.6529C10.7556 22.5107 10.8108 22.4017 10.8673 22.2934C11.1115 21.8251 11.3449 21.3506 11.6044 20.8911C11.7629 20.6105 11.781 20.6209 11.5934 20.3566C11.4857 20.2048 11.5225 20.0851 11.6951 20.0236C11.9345 19.9383 12.1756 19.9379 12.4171 20.0108C12.597 20.065 12.6412 20.1647 12.5509 20.3352C12.5027 20.4265 12.4321 20.5058 12.3673 20.5968C12.8656 21.2034 13.1024 21.9502 13.4763 22.6452C13.6655 22.4318 13.7384 22.188 13.815 21.9452C13.9103 21.6435 13.9903 21.3345 14.1147 21.0452C14.2354 20.765 14.2401 20.5302 14.0311 20.2904C13.8294 20.059 13.8672 19.9446 14.1598 19.8232C14.2307 19.7938 14.3087 19.7674 14.3842 19.765C14.7066 19.7553 15.0297 19.745 15.3518 19.759C15.433 19.7627 15.5106 19.8543 15.5899 19.9058C15.5354 19.9884 15.4849 20.0741 15.424 20.1516C15.4026 20.1791 15.3548 20.1847 15.3207 20.2038C15.2655 20.2346 15.2116 20.2677 15.1488 20.3051C15.5484 20.7744 15.8434 21.3008 16.3454 21.7312C16.4119 21.4155 16.4995 21.1429 16.5216 20.8647C16.5681 20.2754 16.5393 19.6871 16.3838 19.1109C16.3109 18.8413 16.344 18.6019 16.5982 18.4327C16.6236 18.4156 16.6554 18.3855 16.6574 18.3594C16.6754 18.1427 16.8243 18.0022 16.9437 17.8424C17.0309 17.726 17.1008 17.5962 17.1861 17.4605C17.0992 17.4193 17.052 17.3865 16.9998 17.3738C16.654 17.2896 16.3092 17.1989 15.9598 17.1364C15.8848 17.123 15.7557 17.1949 15.7119 17.2651C15.5942 17.4538 15.5153 17.6658 15.4089 17.8621C15.3625 17.9481 15.2972 18.0323 15.2207 18.0919C15.0692 18.2099 14.9187 18.1497 14.8789 17.9628C14.8605 17.8765 14.8504 17.7862 14.8531 17.6982C14.8655 17.2625 15.0889 16.9197 15.3447 16.5893C15.4434 16.4618 15.5638 16.3802 15.7183 16.3642C15.9002 16.3451 16.0882 16.3164 16.2661 16.3431C16.6226 16.3963 16.9778 16.4702 17.3269 16.5618C17.7557 16.6742 18.1837 16.7963 18.6001 16.9471C18.886 17.0508 19.1449 17.2287 19.4295 17.3374C19.6111 17.4066 19.8215 17.4521 20.0121 17.4344C20.4 17.3982 20.7478 16.9254 20.7468 16.502C20.7455 15.9659 20.4522 15.5431 20.2057 15.103C20.1917 15.0776 20.1305 15.0639 20.0937 15.0679C19.8114 15.098 19.5302 15.1402 19.2476 15.1669C18.2563 15.2612 17.2647 15.2833 16.2888 15.0472C14.8872 14.7081 13.689 14.082 13.0713 12.6744C13.0555 12.6389 13.0365 12.6045 13.0161 12.5714C12.8425 12.2864 12.68 11.9938 12.49 11.7202C12.3786 11.5597 12.2238 11.4296 12.091 11.2891C11.6867 11.5544 11.4375 11.9058 11.2345 12.2958C11.0469 12.656 10.8784 13.0275 10.6687 13.374C10.554 13.5636 10.3928 13.7405 10.2155 13.8743C9.06307 14.7445 7.74774 15.1555 6.31469 15.2154C5.57158 15.2465 4.83415 15.186 4.0994 15.0776C4.04991 15.0703 3.96362 15.0846 3.9469 15.1164C3.77935 15.4358 3.59608 15.7512 3.47368 16.0883C3.40545 16.2759 3.37502 16.5297 3.44626 16.7063C3.73019 17.4103 4.17164 17.6233 4.85924 17.3484C5.00873 17.2886 5.15254 17.2136 5.29534 17.1387C5.51707 17.022 5.72943 16.8866 5.95685 16.7829C6.18326 16.6799 6.41669 16.5739 6.65816 16.527C7.06717 16.4478 7.48421 16.41 7.8989 16.3625C8.36979 16.3083 8.78749 16.406 9.02628 16.8595C9.14166 17.0789 9.22794 17.32 9.28413 17.5615C9.31857 17.7099 9.2848 17.8798 9.25603 18.0353C9.23196 18.1668 9.13597 18.1892 9.01424 18.132C8.80087 18.0317 8.70121 17.8397 8.60489 17.6437C8.52931 17.4899 8.49286 17.2685 8.37012 17.1989C8.24738 17.1294 8.03836 17.2073 7.8678 17.2274C7.57684 17.2615 7.28689 17.3009 7.0053 17.3367C6.95313 17.5293 7.02068 17.6742 7.11533 17.8096C7.29425 18.0648 7.48488 18.3123 7.65477 18.5734C7.82767 18.8393 7.86212 19.1219 7.69022 19.4085C7.67115 19.4406 7.65644 19.4804 7.65477 19.5172C7.63403 19.9901 7.60226 20.463 7.6026 20.9356C7.60293 21.2108 7.67049 21.4817 7.82901 21.7432C8.22631 21.2579 8.61158 20.7874 8.99886 20.3145C8.89418 20.2486 8.79184 20.2055 8.72027 20.1322C8.66007 20.0704 8.62797 19.9764 8.60021 19.8911C8.59352 19.87 8.65004 19.8022 8.68081 19.7995C9.01357 19.7717 9.34667 19.7433 9.6801 19.7353C9.86838 19.7306 10.0413 19.8005 10.1694 19.9503C10.3189 20.1252 10.2844 20.259 10.0757 20.3543C10.0366 20.3724 9.99379 20.4239 9.98811 20.465C9.97607 20.552 9.98209 20.6429 9.98978 20.7312C10.0513 21.4212 10.3908 22.0084 10.6827 22.6529ZM5.5679 9.36515C5.32845 9.36515 5.08565 9.33873 4.85054 9.3705C4.2616 9.44976 3.67635 9.55611 3.08908 9.64908C2.99009 9.6648 2.94795 9.71363 2.94126 9.81429C2.92788 10.0139 2.88842 10.2126 2.88675 10.4119C2.87973 11.2848 3.15262 12.0838 3.53354 12.857C3.65595 13.1055 3.82651 13.286 4.06496 13.4095C4.55658 13.664 5.06057 13.8653 5.6281 13.8897C6.26653 13.9175 6.89995 14.0318 7.54374 13.9529C9.08915 13.7636 10.2784 12.5322 10.168 10.6962C10.1496 10.3905 10.0122 10.2317 9.7219 10.142C9.68478 10.1307 9.64732 10.1196 9.61154 10.1053C8.31427 9.58253 6.96149 9.35311 5.5679 9.36515ZM18.2312 9.32936C17.463 9.27552 16.6186 9.4832 15.7761 9.69222C15.1879 9.83837 14.6414 10.0842 14.1491 10.4414C14.0929 10.4822 14.0327 10.5567 14.0264 10.6206C13.9301 11.6226 14.2097 12.5018 14.9043 13.2399C14.9421 13.28 14.9849 13.3182 15.032 13.3456C16.7035 14.3138 18.783 14.3131 20.4141 13.168C20.4659 13.1315 20.5198 13.0787 20.5415 13.0218C20.7398 12.5031 20.9532 11.9888 21.1181 11.4594C21.2836 10.927 21.3124 10.3761 21.1742 9.82667C21.1538 9.74473 21.1328 9.68186 21.0244 9.65878C20.1402 9.46916 19.2482 9.3491 18.2312 9.32936Z" fill="black"/>
<path d="M13.2211 15.99C13.2344 16.6672 13.0976 17.0892 12.7632 17.4404C12.689 17.5183 12.6207 17.5464 12.504 17.5327C12.2672 17.5053 12.0265 17.512 11.787 17.5073C11.2138 17.4962 10.9884 17.2768 10.9395 16.7023C10.8439 15.5763 11.1225 14.5643 11.8295 13.6727C11.9459 13.5259 12.0706 13.5021 12.198 13.6021C12.3482 13.7198 12.509 13.8509 12.5997 14.0131C12.9769 14.6873 13.1776 15.4184 13.2211 15.99Z" fill="black"/>
<path d="M5.81604 10.3631C5.81571 9.85209 6.05683 9.61097 6.5732 9.63137C6.74845 9.63839 6.92269 9.68922 7.09559 9.72701C7.23271 9.75711 7.25779 9.84641 7.20328 9.96714C7.19625 9.98219 7.18689 9.99724 7.18388 10.013C7.16883 10.0949 7.15545 10.1768 7.14141 10.2588C7.2307 10.2588 7.322 10.2705 7.40862 10.2551C7.48922 10.2407 7.56346 10.1942 7.64239 10.1675C7.9979 10.0471 8.29621 10.242 8.33133 10.6166C8.38216 11.1594 8.04973 11.6002 7.50795 11.7075C7.22334 11.7641 6.94208 11.746 6.66684 11.6564C6.06519 11.4607 5.81604 11.0801 5.81604 10.3631Z" fill="black"/>
<path d="M17.0279 10.3303C17.0042 10.1795 16.9942 10.0728 16.9697 9.96914C16.9029 9.68254 16.9407 9.62802 17.2306 9.62568C17.3921 9.62434 17.558 9.60762 17.7142 9.63772C17.8674 9.66715 18.0215 9.72902 18.155 9.81062C18.2861 9.89055 18.359 10.0233 18.3362 10.1956C18.3219 10.3052 18.3289 10.4183 18.3332 10.5297C18.363 11.2952 17.7172 11.6921 17.1942 11.6972C16.9196 11.6998 16.637 11.6594 16.3715 11.5885C15.9501 11.4764 15.6825 10.847 15.8574 10.4437C15.9899 10.1384 16.3835 10.0497 16.6514 10.2437C16.735 10.3046 16.8684 10.2966 17.0279 10.3303Z" fill="black"/>
</svg>
