<svg width="24" height="24" viewBox="0 0 24 24" fill="none" xmlns="http://www.w3.org/2000/svg">
<path d="M3.74695 7.61908C3.75564 7.00974 3.87203 6.44254 4.09242 5.90443C4.9362 3.84131 6.39066 2.37314 8.46582 1.55779C9.32265 1.22102 10.2367 1.07888 11.1564 1.00364C12.1831 0.919693 13.2068 0.969523 14.2238 1.114C14.8445 1.20229 15.4244 1.44409 15.9913 1.70561C17.6701 2.48117 18.9815 3.645 19.7858 5.33556C20.1035 6.00309 20.3005 6.70942 20.4403 7.43313C20.4473 7.46992 20.45 7.50738 20.4563 7.55888C19.9413 7.59065 19.4366 7.64081 18.931 7.64951C16.9561 7.68329 15.0365 8.05016 13.1419 8.57723C13.1044 8.5876 13.0646 8.59228 13.0289 8.60699C12.4603 8.84076 11.8844 8.78558 11.3089 8.64545C10.4547 8.43744 9.60524 8.21036 8.74775 8.01839C8.09059 7.87124 7.42339 7.78763 6.74549 7.78094C6.42544 7.77793 6.10739 7.68028 5.78633 7.66422C5.19137 7.63413 4.59541 7.63245 3.99978 7.61941C3.92219 7.61774 3.84561 7.61908 3.74695 7.61908Z" fill="white"/>
<path d="M10.6828 22.6529C10.3911 22.0081 10.0517 21.4212 9.99183 20.7319C9.98414 20.6436 9.97812 20.5526 9.99016 20.4657C9.99584 20.4246 10.0386 20.3727 10.0778 20.355C10.2861 20.2597 10.3209 20.1259 10.1714 19.951C10.0433 19.8012 9.87043 19.7313 9.68214 19.736C9.34871 19.7443 9.01562 19.7728 8.68286 19.8002C8.65175 19.8028 8.59523 19.8707 8.60226 19.8918C8.63001 19.9771 8.66212 20.0714 8.72232 20.1329C8.79389 20.2062 8.89589 20.249 9.0009 20.3152C8.61363 20.7881 8.22836 21.2586 7.83105 21.7439C7.67287 21.4824 7.60498 21.2115 7.60464 20.9362C7.60431 20.4634 7.63608 19.9905 7.65681 19.5179C7.65849 19.4811 7.67287 19.4413 7.69226 19.4092C7.86416 19.1223 7.82972 18.84 7.65681 18.5741C7.48692 18.3129 7.29629 18.0658 7.11737 17.8103C7.02273 17.6748 6.95517 17.53 7.00734 17.3374C7.28894 17.3013 7.57889 17.2622 7.86985 17.228C8.04041 17.208 8.24909 17.1301 8.37217 17.1996C8.4949 17.2692 8.53102 17.4906 8.60694 17.6444C8.70326 17.8404 8.80292 18.0324 9.01629 18.1327C9.13802 18.1899 9.23367 18.1678 9.25808 18.036C9.28684 17.8805 9.32062 17.7103 9.28617 17.5621C9.22999 17.3207 9.1437 17.0792 9.02832 16.8602C8.78954 16.407 8.37183 16.3093 7.90095 16.3632C7.48625 16.4107 7.06921 16.4485 6.6602 16.5277C6.41874 16.5746 6.18531 16.6806 5.95889 16.7836C5.73148 16.8873 5.51911 17.0227 5.29738 17.1394C5.15458 17.2143 5.01077 17.2892 4.86128 17.3491C4.17369 17.624 3.73223 17.411 3.4483 16.707C3.37707 16.5307 3.4075 16.2766 3.47572 16.089C3.59813 15.7518 3.7814 15.4365 3.94895 15.1171C3.96567 15.0853 4.05162 15.0709 4.10145 15.0783C4.8362 15.1863 5.57363 15.2469 6.31674 15.2161C7.74979 15.1562 9.06545 14.7455 10.2176 13.875C10.3948 13.7412 10.556 13.5643 10.6707 13.3747C10.8804 13.0279 11.049 12.6563 11.2366 12.2965C11.4399 11.9069 11.6891 11.555 12.0931 11.2898C12.2255 11.4306 12.3807 11.5607 12.4921 11.7209C12.682 11.9945 12.8445 12.2871 13.0181 12.572C13.0382 12.6052 13.0576 12.6396 13.0733 12.6751C13.691 14.0827 14.8893 14.7087 16.2909 15.0479C17.2668 15.284 18.258 15.2619 19.2496 15.1676C19.5322 15.1408 19.8135 15.0987 20.0957 15.0686C20.1325 15.0646 20.1934 15.0783 20.2078 15.1037C20.4542 15.5442 20.7475 15.9666 20.7489 16.5027C20.7499 16.926 20.4021 17.3986 20.0141 17.4351C19.8235 17.4528 19.6128 17.4073 19.4316 17.3381C19.1469 17.2294 18.8881 17.0511 18.6022 16.9478C18.1858 16.797 17.7577 16.6749 17.329 16.5625C16.9802 16.4709 16.625 16.3973 16.2681 16.3438C16.0906 16.3174 15.9023 16.3458 15.7203 16.3649C15.5655 16.3809 15.4454 16.4629 15.3468 16.5899C15.0909 16.9204 14.8675 17.2628 14.8552 17.6989C14.8528 17.7869 14.8625 17.8772 14.8809 17.9635C14.9207 18.1504 15.0709 18.2109 15.2227 18.0926C15.2993 18.033 15.3642 17.9487 15.411 17.8628C15.5173 17.6665 15.5966 17.4545 15.714 17.2658C15.7578 17.1956 15.8866 17.1237 15.9618 17.1371C16.3116 17.1996 16.6564 17.2899 17.0019 17.3745C17.0541 17.3872 17.1012 17.42 17.1882 17.4611C17.1029 17.5969 17.033 17.7263 16.9457 17.8431C16.826 18.0029 16.6772 18.1431 16.6594 18.3601C16.6574 18.3862 16.6257 18.4166 16.6002 18.4333C16.3461 18.6026 16.3133 18.8417 16.3859 19.1116C16.5414 19.6878 16.5701 20.2761 16.5236 20.8653C16.5016 21.1433 16.414 21.4162 16.3474 21.7319C15.8454 21.3014 15.5501 20.775 15.1508 20.3058C15.214 20.2684 15.2675 20.2353 15.3227 20.2045C15.3568 20.1858 15.4043 20.1798 15.426 20.1523C15.4869 20.0747 15.5374 19.9888 15.5919 19.9065C15.5127 19.8554 15.4351 19.7634 15.3538 19.7597C15.0321 19.7457 14.7087 19.756 14.3863 19.7657C14.3107 19.7681 14.2328 19.7945 14.1619 19.8239C13.8693 19.9453 13.8315 20.0597 14.0331 20.2911C14.2425 20.5309 14.2375 20.7657 14.1167 21.0459C13.9923 21.3352 13.9124 21.6442 13.8171 21.9459C13.7405 22.1887 13.6676 22.4325 13.4783 22.6459C13.1044 21.9509 12.8673 21.2041 12.3693 20.5975C12.4342 20.5065 12.5048 20.4269 12.5529 20.3359C12.6432 20.165 12.5991 20.0657 12.4191 20.0115C12.1777 19.9386 11.9366 19.9386 11.6971 20.0242C11.5245 20.0858 11.4877 20.2055 11.5954 20.3573C11.7831 20.6215 11.765 20.6115 11.6065 20.8918C11.347 21.3513 11.1135 21.8258 10.8694 22.294C10.8109 22.4021 10.7557 22.5111 10.6828 22.6529ZM13.2211 15.99C13.1776 15.4184 12.977 14.6873 12.5997 14.0131C12.5091 13.8513 12.3482 13.7198 12.1981 13.6021C12.0707 13.5021 11.9459 13.5259 11.8295 13.6727C11.1225 14.5643 10.8443 15.5759 10.9396 16.7023C10.9884 17.2772 11.2138 17.4963 11.7871 17.5073C12.0262 17.512 12.2673 17.5053 12.5041 17.5327C12.6208 17.5461 12.6887 17.5183 12.7633 17.4404C13.0977 17.0892 13.2345 16.6672 13.2211 15.99Z" fill="white"/>
<path d="M5.56795 9.36516C6.96154 9.35312 8.31433 9.58254 9.61161 10.1056C9.64739 10.12 9.68485 10.131 9.72197 10.1424C10.0123 10.2323 10.1494 10.3912 10.1681 10.6965C10.2788 12.5326 9.08955 13.764 7.5438 13.9533C6.90001 14.0322 6.26659 13.9175 5.62815 13.8901C5.06062 13.8656 4.55662 13.6643 4.065 13.4098C3.82655 13.2864 3.65599 13.1058 3.53359 12.8573C3.15233 12.0841 2.87977 11.2851 2.88679 10.4123C2.88846 10.2129 2.92793 10.0143 2.9413 9.81464C2.94799 9.71397 2.99013 9.66515 3.08912 9.64943C3.67639 9.55645 4.26165 9.4501 4.85059 9.37084C5.0857 9.33874 5.3285 9.36516 5.56795 9.36516ZM5.81611 10.3631C5.81644 11.0798 6.06559 11.4607 6.66691 11.6567C6.94215 11.7463 7.22307 11.7644 7.50801 11.7079C8.0498 11.6005 8.38222 11.1594 8.33139 10.6169C8.29627 10.2427 7.99796 10.0474 7.64245 10.1678C7.56353 10.1946 7.48928 10.241 7.40868 10.2554C7.32207 10.2708 7.23076 10.2591 7.14147 10.2591C7.15552 10.1772 7.16889 10.0949 7.18394 10.0133C7.18695 9.99724 7.19665 9.98252 7.20334 9.96747C7.25785 9.84674 7.23277 9.75711 7.09565 9.72735C6.92242 9.68956 6.74851 9.63873 6.57327 9.6317C6.0569 9.61097 5.81577 9.85243 5.81611 10.3631Z" fill="white"/>
<path d="M18.2313 9.32938C19.2483 9.34911 20.1402 9.46917 21.0241 9.65846C21.1325 9.68187 21.1536 9.74474 21.174 9.82635C21.3121 10.3758 21.2837 10.9266 21.1178 11.4591C20.9529 11.9885 20.7395 12.5028 20.5412 13.0215C20.5195 13.0787 20.4656 13.1312 20.4138 13.1677C18.7827 14.3128 16.7032 14.3134 15.0317 13.3453C14.9846 13.3178 14.9417 13.2794 14.904 13.2396C14.2093 12.5015 13.9297 11.6223 14.0261 10.6203C14.0321 10.5564 14.0926 10.4818 14.1488 10.441C14.6411 10.0839 15.1876 9.83805 15.7758 9.6919C16.6189 9.48322 17.4631 9.27553 18.2313 9.32938ZM17.028 10.3303C16.8681 10.2966 16.735 10.3046 16.6514 10.2441C16.3832 10.0497 15.9899 10.1387 15.8574 10.444C15.6825 10.8474 15.9501 11.4768 16.3715 11.5888C16.6373 11.6594 16.9199 11.7002 17.1942 11.6975C17.7172 11.6925 18.363 11.2955 18.3333 10.53C18.3289 10.4186 18.3219 10.3056 18.3363 10.1959C18.359 10.0237 18.2861 9.89089 18.155 9.81096C18.0219 9.7297 17.8674 9.66783 17.7142 9.63806C17.558 9.60796 17.3922 9.62468 17.2306 9.62602C16.9407 9.62836 16.9029 9.68254 16.9698 9.96948C16.9942 10.0725 17.0042 10.1795 17.028 10.3303Z" fill="white"/>
</svg>
