<svg width="24" height="24" viewBox="0 0 24 24" fill="none" xmlns="http://www.w3.org/2000/svg">
<g clip-path="url(#clip0)">
<path d="M11.5227 10.3654V10.3559L10.6711 11.1986L5.25 16.5626V3.9585H5.25001L5.24999 3.95499C5.24651 3.46018 5.04687 2.98696 4.69487 2.63919C4.34354 2.29207 3.86907 2.09823 3.37525 2.09999C3.13107 2.09888 2.88903 2.14572 2.66288 2.23786C2.43587 2.33035 2.22932 2.46668 2.05503 2.63905C1.88075 2.81142 1.74214 3.01645 1.64714 3.24242C1.55214 3.46839 1.50261 3.71087 1.50138 3.95599L1.50137 3.95599V3.9585L1.50137 21.036L1.50138 21.038C1.50236 21.2831 1.55173 21.5255 1.64664 21.7515C1.74156 21.9774 1.88016 22.1824 2.05449 22.3546C2.22882 22.5268 2.43545 22.6629 2.66252 22.7551C2.88852 22.8469 3.13033 22.8933 3.37422 22.8918C3.86859 22.8937 4.34379 22.7003 4.69634 22.3536L4.69722 22.3527L12.0114 15.1239L19.3276 22.3548L11.5227 10.3654ZM11.5227 10.3654L19.3267 2.64602L19.3279 2.64486C19.6806 2.29829 20.1553 2.10409 20.6498 2.10409C21.1439 2.10409 21.6183 2.29801 21.9709 2.64414C22.1465 2.81592 22.286 3.02104 22.3812 3.24745C22.4764 3.47386 22.5255 3.71701 22.5255 3.96262C22.5255 4.20824 22.4764 4.45139 22.3812 4.6778C22.2862 4.90378 22.147 5.10855 21.9719 5.28014C21.9716 5.28046 21.9713 5.28079 21.9709 5.28111L14.6682 12.5013L21.9723 19.7203C21.9727 19.7206 21.9731 19.721 21.9734 19.7213C22.1485 19.8929 22.2875 20.0976 22.3826 20.3236C22.4778 20.55 22.5268 20.7931 22.5268 21.0387C22.5268 21.2844 22.4778 21.5275 22.3826 21.7539C22.2876 21.9798 22.1485 22.1845 21.9736 22.356M11.5227 10.3654L21.9736 22.356M21.9736 22.356C21.6217 22.7045 21.1465 22.9001 20.6512 22.9001C20.1556 22.9001 19.6802 22.7043 19.3283 22.3555L21.9736 22.356ZM33.7805 2.10137C33.5357 2.10009 33.2931 2.14697 33.0664 2.23934C32.8392 2.3319 32.6325 2.46833 32.4581 2.64083C32.2836 2.81333 32.1449 3.01851 32.0499 3.24464C31.9548 3.47078 31.9052 3.71344 31.904 3.95874V3.96125L31.904 21.0401L31.904 21.0431C31.9055 21.2883 31.9553 21.5307 32.0505 21.7566C32.1457 21.9824 32.2845 22.1873 32.459 22.3595C32.6334 22.5317 32.8401 22.6678 33.0672 22.7601C33.2943 22.8524 33.5374 22.899 33.7825 22.8972L34.9766 22.8888L34.7289 22.6408C34.8628 22.5625 34.9867 22.4676 35.0976 22.3582C35.2721 22.186 35.4109 21.9811 35.5061 21.7552C35.6014 21.5293 35.6511 21.2869 35.6526 21.0418V21.0387V3.96125C35.6526 2.92964 34.807 2.10219 33.7805 2.10137ZM33.7805 2.10137C33.781 2.10138 33.7815 2.10138 33.782 2.10138L33.779 2.60137M33.7805 2.10137C33.78 2.10137 33.7795 2.10137 33.779 2.10137V2.60137M33.779 2.60137C34.5352 2.60137 35.1526 3.2105 35.1526 3.96125V21.0387C35.1515 21.2182 35.1151 21.3956 35.0454 21.561C34.9757 21.7263 34.8741 21.8763 34.7464 22.0023C34.6337 22.1136 34.5026 22.2043 34.359 22.2704L32.7059 21.8883C32.6263 21.7894 32.5607 21.6798 32.5112 21.5623C32.4415 21.397 32.4051 21.2195 32.404 21.0401V3.96125C32.4049 3.78165 32.4412 3.60398 32.5108 3.43842C32.5804 3.27285 32.6819 3.12263 32.8096 2.99633C32.9373 2.87004 33.0887 2.77015 33.255 2.70238C33.4213 2.63461 33.5994 2.60029 33.779 2.60137ZM55.7345 5.82112V21.0401C55.7345 22.0759 54.8843 22.8973 53.8595 22.8973C52.8293 22.8973 51.9872 22.0706 51.9872 21.0401V5.82112H45.2231C44.1929 5.82112 43.3495 4.99304 43.3495 3.96262V3.95961C43.3525 3.46513 43.5514 2.99201 43.9026 2.64393C44.2537 2.29606 44.7282 2.10147 45.2224 2.10275M55.7345 5.82112L45.2217 2.60275M55.7345 5.82112H62.4956M55.7345 5.82112V5.32112H62.4972M45.2224 2.10275C45.2227 2.10275 45.223 2.10275 45.2233 2.10275L45.2217 2.60275M45.2224 2.10275H45.2217V2.60275M45.2224 2.10275H62.4988M45.2217 2.60275H62.5M62.4988 2.10275C62.4984 2.10275 62.4979 2.10275 62.4975 2.10276L62.5 2.60275M62.4988 2.10275H62.5V2.60275M62.4988 2.10275C62.9935 2.10061 63.4688 2.29475 63.8205 2.64261C64.1726 2.99078 64.372 3.46448 64.375 3.95961L64.375 3.96613C64.3733 4.21145 64.3232 4.45404 64.2278 4.68004C64.1323 4.90603 63.9932 5.11101 63.8185 5.28326C63.6438 5.45551 63.4369 5.59166 63.2096 5.68395C62.9829 5.77599 62.7403 5.8226 62.4956 5.82112M62.5 2.60275L62.4972 5.32112M62.4956 5.82112C62.495 5.82112 62.4944 5.82112 62.4937 5.82111L62.4972 5.32112M62.4956 5.82112H62.4972V5.32112" fill="black" stroke="black"/>
</g>
<defs>
<clipPath id="clip0">
<rect width="24" height="24" fill="white"/>
</clipPath>
</defs>
</svg>
