<svg xmlns="http://www.w3.org/2000/svg" version="1.1" xmlns:xlink="http://www.w3.org/1999/xlink" xmlns:svgjs="http://svgjs.com/svgjs" viewBox="0 0 24 24" width="24" height="24"><g transform="matrix(1,0,0,1,0,0)"><path d="M13.875,21.5h-3.75a.5.5,0,0,0-.447.724l.336.671A1.989,1.989,0,0,0,11.8,24H12.2A1.99,1.99,0,0,0,13.987,22.9l.336-.671a.5.5,0,0,0-.448-.724Z" fill="#FFFFFF" stroke="none" stroke-linecap="round" stroke-linejoin="round" stroke-width="0"></path><path d="M12,4.5a1,1,0,0,0,1-1V1a1,1,0,0,0-2,0V3.5A1,1,0,0,0,12,4.5Z" fill="#FFFFFF" stroke="none" stroke-linecap="round" stroke-linejoin="round" stroke-width="0"></path><path d="M21.192,3.808a1,1,0,0,0-1.414,0L18.011,5.576A1,1,0,1,0,19.425,6.99l1.767-1.768A1,1,0,0,0,21.192,3.808Z" fill="#FFFFFF" stroke="none" stroke-linecap="round" stroke-linejoin="round" stroke-width="0"></path><path d="M23,12H21a1,1,0,0,0,0,2h2a1,1,0,0,0,0-2Z" fill="#FFFFFF" stroke="none" stroke-linecap="round" stroke-linejoin="round" stroke-width="0"></path><path d="M5.99,5.576,4.222,3.808A1,1,0,0,0,2.808,5.222L4.576,6.99A1,1,0,0,0,5.99,5.576Z" fill="#FFFFFF" stroke="none" stroke-linecap="round" stroke-linejoin="round" stroke-width="0"></path><path d="M3,12H1a1,1,0,0,0,0,2H3a1,1,0,0,0,0-2Z" fill="#FFFFFF" stroke="none" stroke-linecap="round" stroke-linejoin="round" stroke-width="0"></path><path d="M12,6A6.5,6.5,0,0,0,8.285,17.827a.5.5,0,0,1,.215.411V19a1,1,0,0,0,1,1h5a1,1,0,0,0,1-1v-.763a.5.5,0,0,1,.215-.411A6.495,6.495,0,0,0,12,6Z" fill="#FFFFFF" stroke="none" stroke-linecap="round" stroke-linejoin="round" stroke-width="0"></path></g></svg>