<svg width="24" height="24" viewBox="0 0 24 24" fill="none" xmlns="http://www.w3.org/2000/svg">
<path d="M12.4476 18.2095C12.6677 18.2095 12.837 18.3111 12.9556 18.5143C13.091 18.7175 13.1587 18.9968 13.1587 19.3524C13.1587 20.0296 12.9979 20.5545 12.6762 20.927C11.9481 21.8243 11.1524 22.5608 10.2889 23.1365C9.44233 23.7122 8.47725 24 7.39365 24C5.9037 24 4.79471 23.3228 4.06667 21.9683C3.35556 20.6138 3 18.8614 3 16.7111C3 14.6455 3.26243 12.2921 3.7873 9.65079C4.3291 7.00952 5.1164 4.74074 6.14921 2.84444C7.19894 0.948148 8.44339 0 9.88254 0C10.6952 0 11.3302 0.380953 11.7873 1.14286C12.2614 1.88783 12.4984 2.96296 12.4984 4.36825C12.4984 6.38307 11.9397 8.71958 10.8222 11.3778C9.70476 14.036 8.18942 16.6688 6.27619 19.2762C6.39471 19.9704 6.58942 20.4698 6.86032 20.7746C7.13122 21.0624 7.48677 21.2063 7.92698 21.2063C8.62116 21.2063 9.23069 21.0116 9.75555 20.6222C10.2804 20.2159 10.9492 19.5302 11.7619 18.5651C11.9651 18.328 12.1937 18.2095 12.4476 18.2095ZM9.32381 2.51429C8.93439 2.51429 8.49418 3.21693 8.00317 4.62222C7.51217 6.02751 7.08042 7.77143 6.70794 9.85397C6.33545 11.9365 6.13227 13.9344 6.09841 15.8476C7.30053 13.8667 8.25714 11.8857 8.96825 9.90476C9.67936 7.90688 10.0349 6.08677 10.0349 4.44444C10.0349 3.15767 9.79788 2.51429 9.32381 2.51429Z" fill="white"/>
<path d="M18.4456 20.2921C18.6319 20.1228 18.8181 20.0381 19.0044 20.0381C19.2075 20.0381 19.3684 20.1566 19.4869 20.3937C19.6224 20.6138 19.6901 20.8847 19.6901 21.2063C19.6901 21.9175 19.4361 22.4847 18.9282 22.9079C18.0477 23.636 17.0488 24 15.9313 24C14.3229 24 13.1462 23.3312 12.4012 21.9937C11.6562 20.6392 11.2837 18.8783 11.2837 16.7111C11.2837 14.6455 11.5462 12.2921 12.071 9.65079C12.6128 7.00952 13.4001 4.74074 14.4329 2.84444C15.4827 0.948148 16.7271 0 18.1663 0C18.979 0 19.6139 0.380953 20.071 1.14286C20.5451 1.88783 20.7821 2.96296 20.7821 4.36825C20.7821 6.38307 20.2234 8.71958 19.106 11.3778C18.0054 14.036 16.4985 16.6603 14.5853 19.2508C14.7038 19.945 14.9155 20.4444 15.2202 20.7492C15.525 21.054 15.9398 21.2063 16.4647 21.2063C16.7525 21.2063 17.0742 21.1217 17.4298 20.9524C17.8022 20.7831 18.1409 20.563 18.4456 20.2921ZM17.6075 2.51429C17.2181 2.51429 16.7779 3.21693 16.2869 4.62222C15.7959 6.02751 15.3642 7.77143 14.9917 9.85397C14.6192 11.9365 14.416 13.9344 14.3821 15.8476C15.5843 13.8667 16.5409 11.8857 17.252 9.90476C17.9631 7.90688 18.3187 6.08677 18.3187 4.44444C18.3187 3.15767 18.0816 2.51429 17.6075 2.51429Z" fill="white"/>
</svg>
