<svg width="24" height="24" viewBox="0 0 24 24" fill="none" xmlns="http://www.w3.org/2000/svg">
<g clip-path="url(#clip0)">
<path d="M18.75 10.063V6.748C18.75 4.95779 18.0388 3.2409 16.773 1.97503C15.5071 0.709158 13.7902 -0.00200081 12 -0.00200081C10.2098 -0.00200081 8.4929 0.709158 7.22703 1.97503C5.96116 3.2409 5.25 4.95779 5.25 6.748V10.063C4.42638 10.4762 3.73339 11.1096 3.24794 11.8929C2.7625 12.6761 2.50361 13.5785 2.5 14.5V19C2.50132 20.3257 3.02853 21.5967 3.96593 22.5341C4.90332 23.4715 6.17432 23.9987 7.5 24H16.5C17.8257 23.9987 19.0967 23.4715 20.0341 22.5341C20.9715 21.5967 21.4987 20.3257 21.5 19V14.5C21.4964 13.5785 21.2375 12.6761 20.7521 11.8929C20.2666 11.1096 19.5736 10.4762 18.75 10.063V10.063ZM14 16.452C14 16.8476 13.8827 17.2342 13.6629 17.5631C13.4432 17.892 13.1308 18.1484 12.7654 18.2998C12.3999 18.4511 11.9978 18.4907 11.6098 18.4136C11.2219 18.3364 10.8655 18.1459 10.5858 17.8662C10.3061 17.5865 10.1156 17.2301 10.0384 16.8422C9.96126 16.4542 10.0009 16.0521 10.1522 15.6866C10.3036 15.3212 10.56 15.0088 10.8889 14.7891C11.2178 14.5693 11.6044 14.452 12 14.452C12.5304 14.452 13.0391 14.6627 13.4142 15.0378C13.7893 15.4129 14 15.9216 14 16.452ZM12 2.5C13.1266 2.50132 14.2067 2.94938 15.0034 3.7459C15.8001 4.54243 16.2484 5.62241 16.25 6.749V9C16.25 9.13261 16.1973 9.25978 16.1036 9.35355C16.0098 9.44732 15.8826 9.5 15.75 9.5H8.25C8.11739 9.5 7.99021 9.44732 7.89645 9.35355C7.80268 9.25978 7.75 9.13261 7.75 9V6.748C7.75185 5.62158 8.20028 4.54186 8.99696 3.74555C9.79365 2.94924 10.8736 2.50132 12 2.5V2.5Z" fill="white"/>
</g>
<defs>
<clipPath id="clip0">
<rect width="24" height="24" fill="white"/>
</clipPath>
</defs>
</svg>
