<svg width="24" height="24" viewBox="0 0 24 24" fill="none" xmlns="http://www.w3.org/2000/svg">
<g clip-path="url(#clip0)">
<path d="M13.7513 23.97C13.7446 23.8408 13.7363 23.7532 13.7363 23.6656C13.7352 22.4733 13.728 21.2809 13.7435 20.0892C13.7457 19.9001 13.8123 19.686 13.916 19.5274C15.2719 17.4461 16.6422 15.3748 17.9987 13.2935C18.1085 13.1249 18.1778 12.9081 18.1989 12.7068C18.2549 12.1744 18.2732 11.6381 18.3098 11.1035C18.322 10.9272 18.3043 10.763 18.1246 10.6793C17.9394 10.5928 17.7946 10.676 17.651 10.8013C15.8581 12.3713 14.0591 13.934 12.2695 15.5085C12.0926 15.6637 11.9961 15.6671 11.817 15.5101C10.0357 13.9424 8.24388 12.3857 6.45763 10.8229C6.31122 10.6948 6.16814 10.5817 5.96462 10.6793C5.75665 10.7786 5.76608 10.9682 5.77884 11.1573C5.81544 11.7102 5.84039 12.2642 5.89197 12.816C5.90583 12.9636 5.9746 13.1194 6.05723 13.2458C7.41204 15.3171 8.77128 17.3851 10.1366 19.4492C10.2864 19.6755 10.3568 19.9012 10.3546 20.1729C10.3451 21.3281 10.3507 22.4832 10.3507 23.6384C10.3507 23.7343 10.3507 23.8303 10.3507 24.0005C10.1594 23.853 10.0307 23.7532 9.90149 23.6539C7.70651 21.9642 5.51874 20.265 3.31379 18.588C2.38766 17.8826 1.88966 16.9953 2.02054 15.8218C2.1004 15.1075 2.24403 14.3999 2.36104 13.6895C2.70432 11.6132 3.10139 9.54243 3.0548 7.42232C3.0426 6.87718 3.05536 6.33204 3.0537 5.7869C3.04981 4.73156 3.44744 3.83206 4.25766 3.18599C5.91027 1.86778 7.65549 0.713727 9.78059 0.255654C12.8307 -0.402062 15.5985 0.225708 18.1429 1.97758C18.6747 2.3436 19.2238 2.68965 19.7256 3.09337C20.5946 3.79268 21.0383 4.71271 21.0361 5.84347C21.0344 6.81341 20.9945 7.78889 21.0804 8.75217C21.2074 10.1752 21.4193 11.5916 21.6173 13.0074C21.7487 13.9485 21.9517 14.8807 22.0648 15.8235C22.1923 16.8838 21.8119 17.7683 20.9634 18.4271C19.4023 19.64 17.834 20.8428 16.2685 22.0496C15.5148 22.6302 14.7617 23.2114 14.0075 23.7915C13.9365 23.8453 13.8611 23.8935 13.7513 23.97Z" fill="black"/>
</g>
<defs>
<clipPath id="clip0">
<rect x="2" width="20.0886" height="24" fill="white"/>
</clipPath>
</defs>
</svg>
