<svg width="24" height="24" viewBox="0 0 24 24" fill="none" xmlns="http://www.w3.org/2000/svg">
<g clip-path="url(#clip0)">
<path d="M10.5957 3C10.7281 3.00985 10.8606 3.0201 10.9931 3.02915C12.4123 3.12544 13.7481 3.50859 14.9886 4.20694C16.5471 5.08419 17.7605 6.31184 18.656 7.85629C18.6983 7.92906 18.7421 7.95861 18.8283 7.96745C20.1237 8.10193 21.2583 8.60449 22.2177 9.48476C23.1262 10.3184 23.6695 11.3565 23.8919 12.5652C23.9906 13.1013 24.0249 13.6427 23.9803 14.1861C23.8466 15.8137 23.1392 17.1377 21.8497 18.1408C20.9969 18.8041 20.0252 19.1957 18.9566 19.3441C17.8097 19.5033 16.7041 19.3584 15.6473 18.8763C15.5955 18.8526 15.5631 18.8709 15.5241 18.8952C14.825 19.3334 14.0957 19.7126 13.3304 20.0219C12.4376 20.3828 11.5161 20.6385 10.5621 20.7709C9.73268 20.8861 8.90065 20.9042 8.06641 20.8248C6.27992 20.6547 4.63758 20.0589 3.10036 19.1511C2.09244 18.5559 1.17095 17.8453 0.312389 17.0518C-0.0818151 16.6876 -0.105134 16.0799 0.25369 15.6815C0.607891 15.2883 1.21799 15.2471 1.61662 15.6025C2.06148 15.9989 2.51217 16.3875 2.99282 16.74C4.06366 17.5254 5.21592 18.152 6.49281 18.5356C7.42374 18.8152 8.37457 18.9483 9.34671 18.9171C10.5844 18.8775 11.763 18.5818 12.8943 18.0865C13.6257 17.7663 14.3154 17.3717 14.9745 16.9226C15.1052 16.8335 15.2465 16.7736 15.4037 16.7507C15.6425 16.7159 15.8632 16.7662 16.0671 16.8916C16.4297 17.1147 16.8197 17.2671 17.2344 17.3614C18.7083 17.6965 20.3673 17.1308 21.2938 15.9707C21.7037 15.4575 21.9427 14.8707 22.0139 14.2186C22.0985 13.4419 22.0089 12.6882 21.6722 11.977C21.283 11.1553 20.6456 10.5874 19.822 10.2219C19.2983 9.98953 18.7513 9.87495 18.1742 9.9043C17.7514 9.92581 17.4344 9.73524 17.2457 9.35812C16.9998 8.86702 16.7236 8.39583 16.3867 7.96202C15.2377 6.4821 13.7616 5.51519 11.9206 5.12299C11.2785 4.9861 10.6284 4.93283 9.9735 4.96358C9.06931 5.006 8.21697 5.24702 7.42093 5.67701C6.3527 6.25394 5.50378 7.06185 4.89267 8.11339C4.5628 8.68108 4.33303 9.28676 4.25362 9.94149C4.12115 11.0314 4.42047 11.9682 5.25934 12.7069C5.27421 12.72 5.29029 12.7317 5.31361 12.7504C5.33211 12.7164 5.34879 12.6868 5.36427 12.6567C5.94161 11.5342 6.51834 10.4111 7.09668 9.28897C7.2973 8.89959 7.61893 8.704 8.05736 8.73274C8.42503 8.75686 8.69279 8.95025 8.85964 9.27711C9.15394 9.85384 9.44441 10.4326 9.7367 11.0103C9.77047 11.0771 9.80504 11.1436 9.84485 11.2212C9.86274 11.1894 9.87641 11.1677 9.88787 11.145C10.2041 10.5202 10.5171 9.89404 10.8371 9.27128C11.015 8.92512 11.3041 8.73656 11.6953 8.73013C12.0895 8.7239 12.3819 8.90642 12.5753 9.24856C12.6234 9.3338 12.667 9.42164 12.7122 9.50828C13.4399 10.8979 14.1682 12.2872 14.8951 13.6773C15.1323 14.131 15.0159 14.6552 14.6185 14.9427C14.1298 15.2961 13.4606 15.1379 13.1744 14.5986C12.9368 14.1507 12.7034 13.7006 12.4682 13.2515C12.2354 12.8069 12.0026 12.362 11.7696 11.9175C11.7584 11.896 11.7453 11.8757 11.7258 11.8428C11.7071 11.8785 11.6932 11.9039 11.6802 11.9296C11.3593 12.5632 11.0419 13.1986 10.7167 13.8299C10.5366 14.1796 10.2393 14.3644 9.84706 14.3648C9.45466 14.3652 9.15695 14.1798 8.97663 13.8307C8.65319 13.2041 8.33859 12.5729 8.02017 11.9437C8.00771 11.9191 7.99464 11.895 7.97474 11.8568C7.95484 11.8934 7.93936 11.9203 7.92529 11.9479C7.47661 12.8205 7.02773 13.6932 6.57925 14.566C6.40315 14.9089 6.12574 15.1011 5.73938 15.1281C5.58117 15.1391 5.42799 15.1106 5.28587 15.0404C4.40017 14.6036 3.64835 14.0074 3.09272 13.1816C2.675 12.5608 2.4201 11.8771 2.31999 11.1364C2.1841 10.1331 2.33246 9.16413 2.68706 8.22315C3.07262 7.20015 3.66101 6.3048 4.42228 5.52403C5.53936 4.37841 6.87113 3.60065 8.42925 3.22072C8.90346 3.10513 9.38511 3.03558 9.87319 3.01447C9.90817 3.01287 9.94295 3.00543 9.97772 3.0006C10.1836 3 10.3896 3 10.5957 3Z" fill="white"/>
</g>
<defs>
<clipPath id="clip0">
<rect y="3" width="24" height="17.8739" fill="white"/>
</clipPath>
</defs>
</svg>
