<svg width="24" height="24" viewBox="0 0 24 24" fill="none" xmlns="http://www.w3.org/2000/svg">
<path fill-rule="evenodd" clip-rule="evenodd" d="M15.2482 0.0547357L1.92832 1.03488C0.85432 1.12784 0.48 1.828 0.48 2.66736V17.2253C0.48 17.8794 0.71328 18.4384 1.2744 19.1856L4.40552 23.245C4.91984 23.8987 5.3872 24.0386 6.36928 23.9918L21.8375 23.0584C23.1458 22.9655 23.52 22.3585 23.52 21.332V4.954C23.52 4.42336 23.3099 4.27008 22.6906 3.81824C22.6565 3.79344 22.6211 3.76768 22.5846 3.74088L18.3327 0.754704C17.3046 0.00844765 16.8838 -0.0854563 15.2482 0.0547357ZM6.72 4.68536C5.45712 4.77056 5.17016 4.78992 4.45296 4.20768L2.6292 2.76128C2.4432 2.57424 2.53648 2.34096 3.00352 2.29464L15.809 1.36136C16.8836 1.26784 17.4443 1.64176 17.8651 1.96816L20.0615 3.5548C20.155 3.60128 20.3883 3.88088 20.1078 3.88088L6.88304 4.6744L6.72 4.68536ZM5.24696 21.1918V7.28744C5.24696 6.68096 5.43392 6.4008 5.9944 6.35368L21.1826 5.46744C21.6978 5.4208 21.931 5.74768 21.931 6.35368V20.1648C21.931 20.7718 21.8373 21.2858 20.9958 21.332L6.46184 22.1724C5.62072 22.2186 5.24696 21.939 5.24696 21.1918ZM19.5949 8.03328C19.6881 8.45368 19.5949 8.8736 19.1734 8.92088L18.4731 9.06032V19.3254C17.8651 19.6519 17.3045 19.8386 16.8373 19.8386C16.0893 19.8386 15.9019 19.6051 15.3417 18.9056L10.761 11.72V18.6723L12.2105 18.9991C12.2105 18.9991 12.2105 19.8386 11.0411 19.8386L7.81728 20.0255C7.7236 19.8386 7.81728 19.3724 8.14424 19.279L8.98552 19.046V9.85376L7.81744 9.76024C7.72376 9.33992 7.95704 8.73384 8.61184 8.6868L12.0703 8.45384L16.8373 15.733V9.2936L15.6219 9.15424C15.5286 8.64032 15.9019 8.2672 16.3694 8.22088L19.5949 8.03328Z" fill="black"/>
</svg>
