<svg width="24" height="24" viewBox="0 0 24 24" fill="none" xmlns="http://www.w3.org/2000/svg">
<path d="M23.7432 3.50582C23.7432 2.57783 23.3746 1.68785 22.7184 1.03165C22.0622 0.375464 21.1722 0.00682068 20.2442 0.00682068H10.7469C10.4818 0.00682068 10.2275 0.112148 10.04 0.29963C9.85255 0.487113 9.74722 0.741395 9.74722 1.00654C9.74722 1.27168 9.85255 1.52596 10.04 1.71344C10.2275 1.90092 10.4818 2.00625 10.7469 2.00625H17.0831C16.8798 2.48127 16.7653 2.98952 16.7452 3.50582V20.501C16.7452 20.7976 16.6573 21.0875 16.4925 21.3341C16.3277 21.5807 16.0935 21.7729 15.8195 21.8864C15.5455 21.9999 15.244 22.0296 14.9531 21.9717C14.6622 21.9139 14.395 21.7711 14.1853 21.5613C13.9756 21.3516 13.8328 21.0844 13.7749 20.7935C13.717 20.5026 13.7467 20.2011 13.8602 19.9271C13.9737 19.6531 14.1659 19.4189 14.4125 19.2541C14.6591 19.0894 14.9491 19.0014 15.2457 19.0014C15.5108 19.0014 15.7651 18.8961 15.9526 18.7086C16.14 18.5211 16.2454 18.2668 16.2454 18.0017C16.2454 17.7366 16.14 17.4823 15.9526 17.2948C15.7651 17.1073 15.5108 17.002 15.2457 17.002H5.74836V15.5024C5.74836 15.2373 5.64304 14.983 5.45555 14.7955C5.26807 14.608 5.01379 14.5027 4.74865 14.5027C4.48351 14.5027 4.22923 14.608 4.04174 14.7955C3.85426 14.983 3.74893 15.2373 3.74893 15.5024V17.1649C2.94354 17.4028 2.25099 17.9233 1.7984 18.6307C1.34581 19.3381 1.16356 20.185 1.2851 21.0159C1.40664 21.8469 1.82381 22.6061 2.46004 23.1543C3.09627 23.7024 3.90886 24.0027 4.74865 24H15.2457C16.1736 24 17.0636 23.6313 17.7198 22.9751C18.376 22.319 18.7447 21.429 18.7447 20.501V6.65293C19.2116 6.88174 19.7242 7.00204 20.2442 7.00483C21.1722 7.00483 22.0622 6.63618 22.7184 5.97999C23.3746 5.3238 23.7432 4.43382 23.7432 3.50582ZM11.9466 21.6666C11.9599 21.7044 11.964 21.7448 11.9584 21.7845C11.9528 21.8242 11.9378 21.8619 11.9146 21.8946C11.8921 21.9269 11.8623 21.9534 11.8275 21.9718C11.7927 21.9903 11.754 22.0001 11.7147 22.0006H4.74865C4.35094 22.0006 3.96951 21.8426 3.68829 21.5613C3.40707 21.2801 3.24907 20.8987 3.24907 20.501C3.24907 20.1033 3.40707 19.7218 3.68829 19.4406C3.96951 19.1594 4.35094 19.0014 4.74865 19.0014H11.7107C11.75 19.0019 11.7887 19.0117 11.8235 19.0301C11.8583 19.0486 11.8881 19.0751 11.9106 19.1074C11.9338 19.14 11.9488 19.1778 11.9544 19.2174C11.96 19.2571 11.9559 19.2975 11.9426 19.3353C11.6761 20.0896 11.6761 20.9124 11.9426 21.6666H11.9466ZM20.2442 5.0054C19.9476 5.0054 19.6577 4.91745 19.4111 4.75267C19.1645 4.5879 18.9723 4.3537 18.8588 4.07968C18.7453 3.80567 18.7156 3.50416 18.7735 3.21327C18.8313 2.92238 18.9742 2.65518 19.1839 2.44547C19.3936 2.23575 19.6608 2.09293 19.9517 2.03506C20.2426 1.9772 20.5441 2.0069 20.8181 2.1204C21.0921 2.2339 21.3263 2.4261 21.4911 2.67271C21.6559 2.91931 21.7438 3.20924 21.7438 3.50582C21.7438 3.90353 21.5858 4.28496 21.3046 4.56618C21.0234 4.84741 20.6419 5.0054 20.2442 5.0054V5.0054Z" fill="white"/>
<path d="M2.24936 9.17321V13.0031C2.24936 13.1424 2.28813 13.2789 2.36134 13.3973C2.43454 13.5158 2.53929 13.6115 2.66383 13.6737C2.78837 13.736 2.9278 13.7624 3.06648 13.7499C3.20516 13.7374 3.33762 13.6865 3.44902 13.6029L4.99858 12.4413L6.54813 13.6029C6.65953 13.6865 6.79199 13.7374 6.93067 13.7499C7.06935 13.7624 7.20878 13.736 7.33332 13.6737C7.45786 13.6115 7.56261 13.5158 7.63581 13.3973C7.70902 13.2789 7.74779 13.1424 7.74779 13.0031V9.17321C8.64578 8.58183 9.32915 7.71666 9.69645 6.70612C10.0638 5.69557 10.0954 4.59353 9.78674 3.56356C9.47806 2.5336 8.84549 1.63062 7.98293 0.988664C7.12037 0.346709 6.0738 0 4.99858 0C3.92335 0 2.87678 0.346709 2.01422 0.988664C1.15166 1.63062 0.519096 2.5336 0.210414 3.56356C-0.0982668 4.59353 -0.0666057 5.69557 0.300698 6.70612C0.668002 7.71666 1.35137 8.58183 2.24936 9.17321V9.17321ZM4.99858 1.50639C5.69061 1.50639 6.36711 1.71161 6.94252 2.09608C7.51793 2.48056 7.9664 3.02703 8.23123 3.66639C8.49606 4.30575 8.56536 5.00928 8.43035 5.68802C8.29534 6.36676 7.96209 6.99022 7.47274 7.47956C6.9834 7.96891 6.35994 8.30216 5.6812 8.43717C5.00246 8.57218 4.29892 8.50289 3.65957 8.23805C3.02021 7.97322 2.47374 7.52475 2.08926 6.94934C1.70479 6.37393 1.49957 5.69743 1.49957 5.0054C1.49957 4.0774 1.86822 3.18742 2.52441 2.53123C3.1806 1.87504 4.07058 1.50639 4.99858 1.50639V1.50639Z" fill="white"/>
<path d="M3.24907 5.0054C3.24907 5.4694 3.4334 5.91439 3.76149 6.24248C4.08959 6.57058 4.53458 6.7549 4.99858 6.7549C5.46257 6.7549 5.90757 6.57058 6.23566 6.24248C6.56376 5.91439 6.74808 5.4694 6.74808 5.0054C6.74808 4.5414 6.56376 4.09641 6.23566 3.76831C5.90757 3.44022 5.46257 3.2559 4.99858 3.2559C4.53458 3.2559 4.08959 3.44022 3.76149 3.76831C3.4334 4.09641 3.24907 4.5414 3.24907 5.0054V5.0054Z" fill="white"/>
</svg>
