<svg width="24" height="24" viewBox="0 0 24 24" fill="none" xmlns="http://www.w3.org/2000/svg">
<path d="M11.9672 1.00067C11.9672 1.00067 5.36242 0.78662 4 7.98731V12.8913C4 12.8913 4.05592 13.4168 5.55816 14.4822C7.06039 15.5486 10.9481 18.5502 11.9672 18.5502C12.9854 18.5502 16.8741 15.5486 18.3753 14.4822C19.8776 13.4168 19.9345 12.8913 19.9345 12.8913V7.98731C18.572 0.78662 11.9672 1.00067 11.9672 1.00067ZM16.4894 10.6611H7.44511V7.98731C8.36207 4.41204 11.9672 4.3619 11.9672 4.3619C11.9672 4.3619 15.5714 4.41204 16.4894 7.98731V10.6611Z" fill="white"/>
<path d="M11.9672 19.6542C11.9672 19.6542 10.9432 19.5559 10.142 19.0092C9.3417 18.4624 4 14.7117 4 14.7117V22.1361C4 22.1361 4.04532 23 5.01242 23H18.9211C19.8892 23 19.9335 22.137 19.9335 22.137V14.7126C19.9335 14.7126 14.5928 18.4634 13.7915 19.0092C12.9912 19.5559 11.9672 19.6552 11.9672 19.6552V19.6542Z" fill="white"/>
</svg>
