<svg width="24" height="24" viewBox="0 0 24 24" fill="none" xmlns="http://www.w3.org/2000/svg">
<g clip-path="url(#clip0)">
<path d="M23.6176 0.461375C23.6446 0.316659 23.588 0.164225 23.4627 0.0737409C23.302 -0.0422483 23.0799 -0.0190196 22.9462 0.127298L22.7377 0.356132L22.4087 0.497356C22.2918 0.461201 22.1614 0.458095 22.0255 0.491665C21.9477 0.510958 21.9246 0.506424 21.8554 0.492765C21.7039 0.463054 21.5455 0.445053 21.2927 0.525833C21.2036 0.520624 21.0991 0.533376 20.9349 0.587185C20.7288 0.655173 20.6004 0.817234 20.5067 0.936098L20.4756 0.975976C19.8861 1.12783 19.6532 1.45919 19.5628 1.7171C19.5449 1.76722 19.5331 1.81715 19.5235 1.8671C18.9023 1.39618 18.0483 1.35346 17.3235 1.77717C16.4915 2.26413 16.1195 3.18602 16.376 4.12621C16.7896 5.64495 18.2306 7.07535 19.0911 7.93053L19.37 8.2092C19.8184 8.66659 20.3985 9.58859 20.2828 10.2048C20.2546 10.3585 20.1732 10.5815 19.7975 10.7516C19.6061 10.8382 19.423 10.8919 19.2458 10.9129C19.5636 10.0219 19.4099 9.06395 18.8067 8.43641C17.9456 7.54237 17.1322 7.76544 16.8215 8.00814C16.6907 8.11098 16.6389 8.28558 16.693 8.44272C16.7474 8.59994 16.8959 8.70568 17.063 8.70553C17.4762 8.7052 17.9412 9.01292 18.1431 9.42118C18.3134 9.76525 18.2805 10.1382 18.0498 10.5088C17.8748 10.3661 17.7241 10.2088 17.595 10.0731C17.5418 10.0176 17.4918 9.96503 17.4476 9.92199L17.4155 9.88637C16.7975 9.18993 16.1679 8.78361 15.5373 8.67254C15.4583 7.558 14.6709 6.43052 13.4773 5.77502C13.3806 5.72158 13.2802 5.67424 13.1761 5.63133C12.9535 4.46684 12.2411 3.68596 11.1048 3.36624C9.44647 2.89894 8.1298 3.64003 7.49216 5.3984C7.27454 5.9984 6.81216 8.04368 6.43259 9.75844L6.36115 10.0798C6.31037 10.3065 6.04613 10.714 5.76459 10.811C5.68688 10.8383 5.58893 10.851 5.45343 10.7404C5.17694 10.5154 5.34022 9.86615 5.42802 9.51728C5.44523 9.44956 5.45959 9.3912 5.47151 9.33809C5.54328 9.00576 5.43422 8.63517 5.18636 8.37128C4.9441 8.11306 4.60882 7.99448 4.26654 8.04625C3.54163 8.15539 3.31173 8.7417 3.2214 9.00594C3.15114 8.87179 3.05435 8.69565 2.87162 8.59129C2.72322 8.50656 2.62374 8.47283 2.535 8.45985C2.30167 8.32856 2.14318 8.31569 1.98746 8.31471C1.91747 8.31438 1.89364 8.31438 1.82143 8.27946C1.67715 8.21076 1.5284 8.18961 1.38924 8.21614L1.12045 8.04569L0.950327 7.78649C0.840434 7.61901 0.621786 7.56225 0.443692 7.65468C0.308603 7.72492 0.231141 7.86501 0.234421 8.01036C0.100026 8.06979 0.00616526 8.20239 0.00232595 8.35669C-0.00272882 8.55477 0.141679 8.72515 0.337986 8.7527L0.644436 8.79603L0.909445 8.96399C0.942764 9.09696 1.02183 9.222 1.14277 9.325C1.20388 9.37713 1.21364 9.39861 1.24283 9.46291C1.30713 9.60412 1.38378 9.7437 1.59867 9.9031C1.64617 9.97782 1.71703 10.0551 1.85594 10.1565C2.03128 10.2847 2.23777 10.294 2.38864 10.3006C2.40348 10.3017 2.42188 10.3022 2.43932 10.3034C2.90558 10.6947 3.31102 10.691 3.57373 10.614C3.62428 10.5994 3.67207 10.58 3.71804 10.559C3.69723 11.3381 4.15964 12.0577 4.92594 12.3994C5.80595 12.7929 6.77217 12.5582 7.38752 11.8025C8.38086 10.5815 8.70538 8.57746 8.89887 7.38014L8.96366 6.99065C9.07436 6.35979 9.48567 5.3515 10.054 5.08636C10.1952 5.02028 10.4245 4.95681 10.7814 5.16334C10.9637 5.26797 11.1133 5.38552 11.2335 5.51713C10.3245 5.77784 9.63519 6.46095 9.47655 7.31695C9.25026 8.53658 9.90547 9.0687 10.2838 9.17955C10.444 9.22665 10.6152 9.1668 10.7118 9.03057C10.8084 8.89537 10.8075 8.71309 10.7107 8.57804C10.469 8.2417 10.4488 7.68476 10.6632 7.28252C10.8436 6.9441 11.1662 6.75331 11.6013 6.72528C11.588 6.95091 11.5474 7.16518 11.5132 7.349C11.4988 7.42438 11.4851 7.49565 11.4757 7.55684C11.4745 7.56333 11.4691 7.58567 11.4649 7.6032C11.2773 8.42908 11.291 9.12501 11.5042 9.68009C10.5887 10.2454 9.93956 11.4009 9.84554 12.6923C9.83705 12.8025 9.83578 12.9145 9.84026 13.0259C8.87447 13.7137 8.46162 14.6866 8.64405 15.8531C8.91022 17.5553 10.1319 18.4432 11.9968 18.2904C12.6328 18.2384 14.6849 17.8074 16.4022 17.4377L16.7234 17.3683C16.9512 17.3205 17.4316 17.3904 17.637 17.6059C17.694 17.6659 17.7466 17.7492 17.7025 17.9186C17.6134 18.2635 16.9547 18.3855 16.6009 18.4514C16.5326 18.4638 16.4733 18.4747 16.4204 18.4865C16.0882 18.5598 15.7964 18.8134 15.66 19.1486C15.5262 19.4761 15.5574 19.8308 15.7472 20.1201C16.1486 20.7338 16.7773 20.6985 17.0551 20.6704C16.9627 20.7904 16.8429 20.9514 16.824 21.1617C16.809 21.3316 16.8197 21.4364 16.8447 21.5217C16.8221 21.7884 16.8768 21.9385 16.9406 22.0799C16.9696 22.1437 16.9788 22.1655 16.9781 22.2455C16.9753 22.4105 17.0218 22.5584 17.109 22.6761L17.0512 23.077L16.885 23.3381C16.7765 23.5075 16.8142 23.7303 16.9717 23.8543C17.0289 23.8996 17.0976 23.9278 17.1701 23.9359C17.2426 23.9439 17.3159 23.9314 17.3816 23.8998C17.4914 23.9981 17.6507 24.0295 17.7931 23.9697C17.9759 23.8932 18.0722 23.6919 18.0169 23.5014L17.9309 23.2038L17.992 22.7777C18.0935 22.692 18.1698 22.5719 18.2119 22.4258C18.2332 22.3491 18.2486 22.3312 18.2951 22.2776C18.3964 22.1606 18.4916 22.0324 18.5468 21.7712C18.5955 21.697 18.6359 21.5998 18.6705 21.4316C18.7143 21.2189 18.6362 21.0272 18.5799 20.8873L18.561 20.84C18.7225 20.2533 18.5504 19.8863 18.3715 19.6794C18.3363 19.6398 18.2989 19.6044 18.2611 19.5712C18.9777 19.266 19.4392 18.5455 19.4313 17.7062C19.4216 16.7422 18.8059 15.9621 17.863 15.7172C16.3388 15.3231 14.3819 15.8627 13.2131 16.1855L12.8323 16.2891C12.2122 16.4514 11.1242 16.4971 10.6466 16.0909C10.5278 15.9899 10.3745 15.8088 10.4135 15.3974C10.4331 15.1884 10.4775 15.0033 10.5469 14.8394C11.1628 15.5574 12.0709 15.8993 12.915 15.6868C14.1181 15.3841 14.3288 14.5669 14.2717 14.1769C14.248 14.0122 14.1221 13.8805 13.9588 13.8497C13.7951 13.8189 13.6297 13.8952 13.5476 14.0396C13.3421 14.3988 12.8444 14.6496 12.3894 14.6224C12.0062 14.5995 11.6986 14.3858 11.4916 14.0013C11.7027 13.92 11.9136 13.8671 12.0955 13.8222C12.1704 13.8037 12.2406 13.7866 12.3 13.7697C12.3157 13.7666 12.3313 13.7633 12.3469 13.7598C13.2891 13.5624 13.9678 13.2007 14.3721 12.6844C15.3146 13.1628 16.5862 13.1354 17.7318 12.5867C17.8311 12.539 17.9284 12.4845 18.0234 12.425C19.1005 12.9215 20.1501 12.7972 21.0718 12.0594C22.4166 10.9834 22.5813 9.48153 21.5226 7.93938C21.1613 7.41292 19.7681 5.84577 18.5943 4.53912L18.3748 4.29427C18.2206 4.12032 18.0426 3.66883 18.1276 3.38327C18.1509 3.30415 18.1977 3.21695 18.3666 3.17121C18.71 3.07771 19.1431 3.58842 19.3757 3.86282C19.4208 3.91618 19.4593 3.96193 19.4962 4.0024C19.7247 4.25464 20.0896 4.38128 20.448 4.33378C20.7993 4.28719 21.091 4.0834 21.2483 3.77502C21.5816 3.12203 21.2384 2.59396 21.0762 2.3665C21.2262 2.38747 21.4255 2.41157 21.6174 2.32317C21.7726 2.25201 21.8577 2.19056 21.9198 2.12634C22.1625 2.01376 22.2654 1.89166 22.3563 1.76608C22.3985 1.70932 22.412 1.69001 22.4819 1.6514C22.6737 1.54533 22.7619 1.40488 22.8028 1.29483L23.0894 1.17145L23.3988 1.17722C23.5994 1.18123 23.7704 1.03266 23.7938 0.833517C23.8111 0.682935 23.7393 0.540264 23.6176 0.461375V0.461375ZM12.9997 11.3533C12.8763 11.6927 12.1153 12.0247 11.5758 12.2269C11.7191 11.9553 11.9096 11.6999 12.1299 11.4945C12.5469 11.1056 12.8965 11.116 12.9698 11.1552C13.0238 11.2505 13.0165 11.3071 12.9997 11.3533V11.3533ZM13.5734 9.25619C13.4645 9.265 13.4163 9.23537 13.3812 9.20093C13.1237 8.94711 13.1393 8.11738 13.1802 7.54247C13.3674 7.78572 13.5205 8.06558 13.6155 8.35173C13.7949 8.89207 13.64 9.20591 13.5734 9.25619V9.25619ZM15.5558 11.199C15.0112 11.0304 14.8464 10.7217 14.8449 10.6389C14.9006 10.5443 14.9532 10.5224 15.0014 10.5139C15.3575 10.4527 16.0233 10.9481 16.4664 11.3164C16.1603 11.3269 15.8435 11.2881 15.5558 11.199V11.199Z" fill="#00FF00"/>
<path d="M23.4057 0.788458L23.0556 0.71063L23.2349 0.390251L22.9694 0.681459L22.3913 0.929914C22.34 0.874832 22.2533 0.837153 22.1197 0.870241C21.7664 0.958352 21.7561 0.769995 21.3637 0.912936C21.2833 0.94257 21.3103 0.874254 21.0566 0.957947C20.8802 1.01579 20.7612 1.31126 20.6432 1.33657C19.5048 1.58026 19.9558 2.55143 20.1131 2.74366C20.3083 2.9829 20.146 3.06483 20.0595 2.97885C19.9245 2.84372 19.7573 2.62227 19.4365 2.30627C18.3372 1.22178 16.2893 2.32439 16.7524 4.02296C17.1887 5.62268 18.9237 7.19663 19.6491 7.93573C20.3053 8.60446 21.4458 10.4324 19.9588 11.1063C19.4532 11.3357 19.0195 11.3532 18.6501 11.2599C19.169 10.4138 19.139 9.34396 18.526 8.70671C17.6822 7.8301 17.0624 8.31522 17.0624 8.31522C18.0443 8.31447 19.2776 9.55742 18.2613 10.8891C18.2207 10.9423 18.1771 10.9933 18.1308 11.0418C17.6956 10.784 17.3828 10.405 17.1705 10.1957C17.0763 10.1024 16.2164 9.00643 15.1476 9.02987C15.2412 7.89247 14.4186 6.73621 13.2905 6.11613C13.1429 6.0354 12.9879 5.96888 12.8276 5.91747C12.7171 5.06717 12.2992 4.10708 10.9989 3.74084C9.01818 3.18296 8.17464 4.65967 7.85897 5.53094C7.5885 6.2768 6.86378 9.62315 6.74181 10.1651C6.62599 10.6819 5.90138 11.6084 5.20712 11.0424C4.6716 10.6064 5.00879 9.63087 5.08995 9.25535C5.17718 8.85143 4.81873 8.35693 4.32429 8.43144C3.73176 8.52057 3.62077 9.06496 3.55284 9.2403C3.40947 9.60978 3.07499 9.42715 3.00769 9.38309C2.90621 9.31751 2.83911 9.02146 2.67755 8.9293C2.44561 8.79693 2.45896 8.86914 2.38586 8.82461C2.03005 8.60562 1.98176 8.78786 1.6534 8.63166C1.55101 8.58281 1.46998 8.5876 1.4103 8.61511C1.39034 8.62798 1.37691 8.64137 1.35808 8.6586L0.840348 8.33013L0.624632 8.00094L0.757754 8.33386L0.392517 8.36666L0.782507 8.42158L1.29373 8.74574C1.26763 8.82247 1.27759 8.92748 1.39612 9.02856C1.67286 9.26484 1.52614 9.38276 1.87108 9.61871C1.9419 9.66683 1.87046 9.68446 2.08622 9.84183C2.23585 9.95148 2.54543 9.87627 2.63503 9.95782C3.49575 10.7412 4.02303 9.8094 4.08766 9.56928C4.16825 9.27148 4.32977 9.35557 4.31019 9.47579C4.27845 9.66436 4.19603 9.92898 4.12586 10.3738C3.88389 11.8996 5.97311 12.9226 7.08457 11.557C8.13069 10.2709 8.40068 7.9437 8.57912 6.92385C8.74144 6.00093 9.56328 4.00905 10.9765 4.82576C11.4574 5.10329 11.7238 5.44576 11.8633 5.80007C10.873 5.87082 10.0208 6.51856 9.85986 7.38837C9.6386 8.58401 10.3938 8.80559 10.3938 8.80559C9.82092 8.00775 10.1142 6.2817 11.7884 6.33225C11.8554 6.33443 11.9222 6.34017 11.9885 6.34946C12.0322 6.85318 11.9065 7.32837 11.86 7.62239C11.8394 7.74888 11.4768 8.99514 12.0238 9.8504C10.9984 10.2719 10.3253 11.4708 10.2342 12.7205C10.2216 12.8935 10.2265 13.0613 10.2458 13.2236C9.51881 13.6789 8.82069 14.4589 9.02954 15.7933C9.34743 17.8263 11.041 17.9779 11.9649 17.902C12.7551 17.8372 16.0996 17.1018 16.6427 16.9872C17.1611 16.8775 18.305 17.1503 18.0801 18.0169C17.9064 18.6853 16.8791 18.7853 16.5045 18.8676C16.1 18.9566 15.8005 19.4887 16.0743 19.907C16.4024 20.4085 16.9433 20.2826 17.1306 20.2716C17.5269 20.2484 17.4996 20.6284 17.4877 20.708C17.4702 20.8277 17.2293 21.012 17.2127 21.1965C17.1889 21.4624 17.2491 21.4204 17.2389 21.5053C17.1878 21.9203 17.3736 21.8875 17.3682 22.2517C17.3667 22.3619 17.403 22.4323 17.4507 22.4752L17.4524 22.4732L17.4665 22.4883L17.4804 22.499V22.4996C17.4945 22.5088 17.5098 22.516 17.5259 22.521L17.4255 23.2165L17.2136 23.5488L17.4632 23.2904L17.6431 23.6104L17.5333 23.232L17.6348 22.5297C17.7117 22.5173 17.7959 22.4624 17.8363 22.3203C17.9359 21.9702 18.1042 22.0546 18.1747 21.6428C18.1893 21.5584 18.2344 21.6161 18.2882 21.3544C18.326 21.1727 18.1285 20.9224 18.1649 20.8074C18.5184 19.6979 17.4516 19.6073 17.2069 19.648C16.9025 19.6989 16.9113 19.5172 17.0293 19.4853C17.2139 19.4349 17.4886 19.3997 17.9221 19.2786C19.4098 18.862 19.4696 16.5373 17.7654 16.0959C16.1598 15.6806 13.9319 16.405 12.9308 16.6674C12.0243 16.9047 9.87122 16.9874 10.0249 15.3621C10.0768 14.8094 10.2768 14.4243 10.541 14.1502C11.018 15.0204 11.9619 15.5253 12.8194 15.3092C13.9995 15.0127 13.8858 14.2338 13.8858 14.2338C13.3989 15.0863 11.7083 15.5397 11.0563 13.9965C11.0306 13.9347 11.008 13.8716 10.9886 13.8075C11.4287 13.5576 11.9127 13.4743 12.1998 13.394C12.3303 13.3578 13.7653 13.1474 14.2468 12.155C15.1242 12.7872 16.4596 12.7649 17.5623 12.2358C17.7189 12.1612 17.8621 12.0731 17.9935 11.9761C18.7494 12.3809 19.7735 12.5996 20.828 11.7561C22.4348 10.4703 21.7253 8.92519 21.2008 8.16092C20.7518 7.50712 18.4534 4.96938 18.0832 4.55489C17.7317 4.15917 17.3996 3.03136 18.2638 2.79618C18.93 2.61486 19.5273 3.45704 19.7851 3.74184C20.0629 4.04806 20.6731 4.04438 20.9008 3.59888C21.1733 3.06505 20.795 2.65785 20.6924 2.50079C20.4755 2.16864 20.8187 2.0038 20.8937 1.97407C21.0061 1.93 21.2858 2.04784 21.4544 1.97002C21.6973 1.85866 21.631 1.82727 21.7096 1.79395C22.0951 1.63208 21.9746 1.48704 22.2928 1.31097C22.3806 1.26243 22.4247 1.20374 22.4424 1.14642L22.4392 1.13527C22.4533 1.08584 22.4516 1.0519 22.4445 1.02507L23.0123 0.781242L23.4057 0.788458V0.788458ZM12.8309 7.06299C12.8418 6.95688 12.8516 6.83281 12.8576 6.69575C13.4042 7.06884 13.8004 7.67178 13.9858 8.22805C14.2539 9.03647 13.9566 9.60534 13.6341 9.64211C12.5615 9.76491 12.7485 7.89004 12.8309 7.06299ZM11.2857 12.7439C11.1847 12.7786 11.0677 12.8209 10.9401 12.8729C11.0521 12.2206 11.4353 11.6091 11.864 11.2089C12.4868 10.6282 13.1278 10.6616 13.2958 10.9396C13.8538 11.8631 12.0714 12.474 11.2857 12.7439ZM15.4403 11.5714C14.6266 11.3196 14.3376 10.7461 14.4951 10.4625C15.0196 9.51895 16.4355 10.7624 17.06 11.3111C17.14 11.3815 17.2348 11.4622 17.3434 11.5467C16.7216 11.7738 16.0001 11.7453 15.4403 11.5714V11.5714Z" fill="black"/>
<path d="M18.4044 23.6272H18.4783V23.412H18.5623V23.3601H18.323V23.412H18.4044V23.6272V23.6272ZM18.5841 23.6183V23.365H18.6956L18.7364 23.5366H18.7372L18.7775 23.365H18.8864V23.6183H18.8251V23.4063L18.824 23.4056L18.7654 23.6183H18.7018L18.6462 23.4037L18.6454 23.4048V23.6183H18.5841Z" fill="#66B933"/>
</g>
<defs>
<clipPath id="clip0">
<rect width="23.7984" height="24" fill="white"/>
</clipPath>
</defs>
</svg>
