<svg width="24" height="24" viewBox="0 0 24 24" fill="none" xmlns="http://www.w3.org/2000/svg">
<path d="M3.26225 20.7474C3.54438 19.5343 3.76538 18.4904 4.03341 17.4606C4.14626 17.028 4.09453 16.6706 3.88764 16.2709C1.08043 10.7741 4.16036 4.30386 10.1792 3.02486C15.488 1.89633 20.6369 5.78035 21.1306 11.202C21.5867 16.1957 17.7685 21.1377 11.9378 21.1847C10.513 21.1941 9.13059 20.8744 7.8704 20.1785C7.37196 19.9057 6.91585 19.8634 6.3798 20.0092C5.40174 20.2725 4.40958 20.4794 3.26225 20.7474Z" fill="white"/>
<path d="M4.48482 21.3399C4.6635 21.5703 4.69642 21.7913 4.6635 22.1252C3.88294 22.3744 3.06475 22.6142 2.21836 22.68C1.57416 22.7318 1.2403 22.3697 1.33905 21.6973C1.4519 20.9073 1.6682 20.1314 1.82808 19.3932C2.18544 19.2898 2.42525 19.3509 2.66977 19.5296C2.69328 20.2208 2.3077 20.865 2.33121 21.6409C3.07416 21.7678 3.73247 21.307 4.48482 21.3399Z" fill="white"/>
<path d="M2.19015 14.4888C2.48168 15.3211 2.82024 16.1581 3.17761 16.9904C3.39391 17.4982 3.06005 17.9872 2.97541 18.4481C2.62745 18.5844 2.40174 18.481 2.13372 18.2694C2.66037 16.9434 1.39547 15.9465 1.40018 14.6863C1.62118 14.4747 1.86569 14.4418 2.19015 14.4888Z" fill="white"/>
<path d="M9.51146 21.8525C9.56319 22.144 9.52557 22.365 9.36569 22.586C8.0961 22.7036 7.12275 21.2882 5.82024 21.8854C5.5146 21.6691 5.47698 21.4293 5.50989 21.1189C6.1729 20.8039 6.8124 20.6252 7.54595 21.0296C8.15253 21.3634 8.82494 21.5703 9.51146 21.8525Z" fill="white"/>
<path d="M5.43936 3.18003C5.75911 3.34931 5.83435 3.57502 5.99892 3.82424C5.27949 4.53897 4.49892 5.17847 3.92055 5.96373C3.56789 5.91201 3.3798 5.74743 3.18231 5.47941C3.76538 4.55778 4.55065 3.83364 5.43936 3.18003Z" fill="white"/>
<path d="M20.8014 5.44179C20.6133 5.77094 20.4159 5.8838 20.1384 5.98254C19.4801 5.2396 18.8077 4.52016 18.0601 3.92768C18.0695 3.57032 18.2952 3.41985 18.4974 3.14712C19.4237 3.78662 20.1949 4.52486 20.8014 5.44179Z" fill="white"/>
<path d="M18.5914 20.7945C18.2434 20.6299 18.1494 20.4277 18.0271 20.155C18.7513 19.4825 19.4801 18.8242 20.082 18.086C20.4394 18.0531 20.5898 18.2835 20.8626 18.4857C20.2466 19.4355 19.4801 20.1738 18.5914 20.7945Z" fill="white"/>
<path d="M14.7262 22.6518C14.4535 22.3791 14.4676 22.1252 14.4535 21.8289C15.4033 21.4951 16.3343 21.18 17.1666 20.691C17.4582 20.8509 17.571 21.0719 17.618 21.4293C16.7434 22.0405 15.7419 22.4026 14.7262 22.6518Z" fill="white"/>
<path d="M10.5365 1.91985C10.3955 1.67533 10.3296 1.48254 10.4331 1.16749C11.4535 0.899469 12.5162 1.01232 13.5177 1.10166C13.7246 1.44492 13.5883 1.65182 13.5036 1.91985C12.5209 1.91985 11.5428 1.91985 10.5365 1.91985Z" fill="white"/>
<path d="M9.29986 1.35088C9.53968 1.66122 9.53968 1.88693 9.56319 2.17847C8.62745 2.50762 7.69642 2.82737 6.86883 3.29759C6.52087 3.19884 6.48325 2.92141 6.31867 2.61577C7.24971 1.98568 8.24657 1.6189 9.29986 1.35088Z" fill="white"/>
<path d="M17.2043 3.34461C16.3249 2.86029 15.4174 2.49351 14.5146 2.20668C14.4347 1.86812 14.4723 1.62361 14.7168 1.36028C15.7325 1.58129 16.6917 1.99508 17.5757 2.53113C17.6322 2.8885 17.4723 3.08129 17.2043 3.34461Z" fill="white"/>
<path d="M20.698 6.81953C20.8673 6.54681 21.0695 6.44806 21.4362 6.36812C22.0146 7.24273 22.4002 8.23019 22.6447 9.25527C22.419 9.54681 22.1651 9.55151 21.8171 9.5374C21.5209 8.60637 21.1588 7.67533 20.698 6.81953Z" fill="white"/>
<path d="M1.11805 10.4449C1.48952 10.3227 1.69642 10.4073 1.93153 10.5484C1.93153 11.5029 1.93153 12.4622 1.93153 13.4167C1.75284 13.6377 1.52714 13.6518 1.19328 13.6283C0.887639 12.5844 1.0099 11.5217 1.11805 10.4449Z" fill="white"/>
<path d="M22.0757 10.5484C22.3249 10.3979 22.5365 10.3086 22.7764 10.4167C23.0538 11.0985 23.0773 12.6926 22.8234 13.5625C22.5648 13.7412 22.3438 13.5813 22.0757 13.4825C22.0757 12.5139 22.0757 11.5546 22.0757 10.5484Z" fill="white"/>
<path d="M21.7983 14.5123C22.1651 14.4324 22.372 14.517 22.6635 14.6534C22.4378 15.7396 22.0052 16.7082 21.4644 17.597C21.0883 17.6017 20.8955 17.4465 20.6698 17.2114C21.1259 16.3462 21.5209 15.4528 21.7983 14.5123Z" fill="white"/>
<path d="M13.4378 22.0829C13.6306 22.2992 13.6541 22.5202 13.6071 22.8399C12.5397 23.075 11.4817 23.0327 10.4613 22.8775C10.292 22.539 10.419 22.3321 10.5177 22.0782C11.5005 22.0829 12.4833 22.0829 13.4378 22.0829Z" fill="white"/>
<path d="M2.54751 6.41044C2.91899 6.40574 3.12118 6.54681 3.32808 6.82894C2.87197 7.66123 2.48639 8.55935 2.21836 9.46217C1.89391 9.59853 1.6588 9.528 1.35316 9.3211C1.56946 8.27722 1.99736 7.30386 2.54751 6.41044Z" fill="white"/>
</svg>
