<svg width="24" height="24" viewBox="0 0 24 24" fill="none" xmlns="http://www.w3.org/2000/svg">
<path d="M12 0C9.633 0 7.352 0.69 5.379 2H2V5.379C0.69 7.352 0 9.633 0 12C0 14.367 0.69 16.648 2 18.621V22H5.379C7.352 23.31 9.633 24 12 24C14.367 24 16.648 23.31 18.621 22H22V18.621C23.31 16.648 24 14.367 24 12C24 9.633 23.31 7.352 22 5.379V2H18.621C16.648 0.69 14.367 0 12 0ZM12 2C14.061 2 16.045 2.63 17.738 3.818L17.996 4H20V6.004L20.182 6.262C21.3663 7.94087 22.0015 9.94543 22 12C22 14.061 21.37 16.045 20.182 17.738L20 17.996V20H17.996L17.738 20.182C16.0592 21.3666 14.0546 22.0017 12 22C9.94 22 7.956 21.37 6.262 20.182L6.004 20H4V17.996L3.818 17.738C2.63342 16.0592 1.99828 14.0546 2 12C2 9.94 2.63 7.956 3.818 6.262L4 6.004V4H6.004L6.262 3.818C7.94087 2.63366 9.94543 1.99855 12 2V2ZM5 7L5.795 7.795C5.92936 7.92854 6.0224 8.09797 6.063 8.283L7.881 16.465C7.91737 16.6293 7.9117 16.8001 7.8645 16.9616C7.8173 17.1231 7.73011 17.2701 7.611 17.389L7 18H11L10.537 17.072L12 13L13.463 17.072L13 18H17L16.389 17.389C16.2699 17.2701 16.1827 17.1231 16.1355 16.9616C16.0883 16.8001 16.0826 16.6293 16.119 16.465L17.938 8.283C17.9785 8.09816 18.0712 7.92881 18.205 7.795L19 7H15L15.336 7.67C15.4425 7.88372 15.4688 8.12856 15.41 8.36L14.283 12.867L12 7L9.717 12.867L8.59 8.359C8.53186 8.12732 8.55883 7.88247 8.666 7.669L9 7H5Z" fill="#F4BF2A"/>
</svg>
